<?xml version="1.0" encoding="utf-8"?>
<!-- Generator: Adobe Illustrator 24.3.0, SVG Export Plug-In . SVG Version: 6.00 Build 0)  -->
<svg version="1.1" id="Layer_1" xmlns="http://www.w3.org/2000/svg" xmlns:xlink="http://www.w3.org/1999/xlink" x="0px" y="0px"
	 viewBox="0 0 2100 1500" style="enable-background:new 0 0 2100 1500;" xml:space="preserve">
<style type="text/css">
	.st0{fill:#D0CAD4;}
	.st1{fill:#E5DFEC;}
	.st2{fill:#E1D9E6;}
	.st3{fill:#FCFBFD;}
	.st4{fill:#D292FA;}
	.st5{fill:#9079A7;}
	.st6{fill:#A689BE;}
	.st7{fill:#9D7FB5;}
	.st8{fill:#1F0141;}
	.st9{fill:#E5A5FC;}
	.st10{fill:#D290FC;}
	.st11{fill:#885CA5;}
	.st12{fill:#805A9F;}
	.st13{fill:#1F0242;}
	.st14{fill:#D8A5F6;}
	.st15{fill:#DAA8F6;}
	.st16{fill:#D9A9F7;}
	.st17{fill:#D7A3F6;}
	.st18{fill:#D49FF2;}
	.st19{fill:#D191FD;}
	.st20{fill:#D4A1F1;}
	.st21{fill:#D7A4F4;}
	.st22{fill:#855CA1;}
	.st23{fill:#613B82;}
	.st24{fill:#DD9FF5;}
	.st25{fill:#1D023E;}
</style>
<g>
	<g>
		<path class="st0" d="M1317.8,1016.8c-179.4,0-358.7,0-538.1,0.1c-3.7,0-4.6-0.8-4.6-4.6c0.1-174.1,0.1-348.1,0.1-522.2
			c0.7-0.3,1.3-0.1,1.7,0.5c1.3,2.5,0.8,5.2,0.8,7.9c0,72.2,0,144.3,0,216.5c0,50.8,0,101.6,0,152.4c0,1.3,0,2.6,0,3.9
			c0,43.5,0,86.9,0,130.4c0,2.6-0.8,5.4,1.6,7.5c2.2,2.6,6.6,0.9,8.4,4.4c1.9,1.6,4.2,0.8,6.3,0.8c171.5,0,343,0,514.5,0.1
			c3,0,6-0.6,8.9,0.8C1318,1015.6,1318.1,1016.1,1317.8,1016.8z"/>
		<path class="st1" d="M776.2,490.1c-0.3,0-0.7,0-1,0c-0.9-4.2,0.8-5.1,5-5.1c179.2,0.1,358.4,0.1,537.6,0.1c0.8,1.3,1,2.5-0.4,3.4
			c-4.1,0.6-8.2-0.4-12.4-0.4c-170.9,0.1-341.8,0.1-512.8,0.1c-4.2,0-8.3-0.1-12.2,1.8C778.8,490.4,777.5,490.4,776.2,490.1z"/>
		<path class="st2" d="M1317.8,1016.8c0-0.3,0-0.7,0-1c-0.1-1.7,0.4-3.4,0-5.2c-0.2-2.3-0.1-4.7-0.1-7c0-164.1,0-328.3,0-492.4
			c0-3.6-0.9-7.4,1.3-10.7c0.5-0.6,1.1-0.7,1.8-0.4c0,170.9,0,341.8,0,512.7C1320.8,1014.8,1321.9,1017.8,1317.8,1016.8z"/>
		<path class="st3" d="M1320.8,500.1c-0.3-0.1-0.6-0.1-0.9-0.1c-3.4-3.2-4-6.8-2.1-11.8c0-1,0-2,0.1-3.1c1.7,0,3.5-0.7,3.1,2.5
			C1320.5,491.7,1320.8,495.9,1320.8,500.1z"/>
		<path class="st4" d="M1317.8,488.2c1.4,3.8,0.4,8,2.1,11.8c0,48.6-0.1,97.2-0.1,145.8c0,119.4,0,238.7,0,358.1c0,3-0.2,6-0.3,9
			c-1.3,1.6-3,2-4.9,2c-1.3,0-2.7,0-4,0c-171.9,0-343.9,0-515.8,0c-2.5,0-5.4,1.1-7.5-1.4c-2.9-1.3-6.2,0.2-9-1.6
			c-1.6-2.1-1-4.5-1-6.7c0-37.4,0-74.8,0-112.1c0-132,0-263.9,0-395.9c0-2.6-0.8-5.3,1-7.8c2.7-3.2,6.4-3.1,10.1-3.1
			c72.1,0,144.2,0,216.3,0c101.1,0,202.1,0,303.2,0C1311.2,486.2,1314.8,485.9,1317.8,488.2z"/>
		<path class="st5" d="M787.2,1013.4c2,0.1,4,0.3,6,0.3c171.6,0,343.2,0,514.8,0c3.8,0,7.7,0,11.4-0.8c0.3,1.4-0.5,2.3-1.6,3
			c-103.6,0-207.1,0-310.7,0c-73.4,0-146.9,0-220.3,0c-2,0-4.2,0.5-6.6-1C782.7,1013,785.2,1014.1,787.2,1013.4z"/>
		<path class="st6" d="M778.2,489.3c0,129.2,0,258.4,0,387.6c0,5.3,0,10.7,0,16c-2.7-0.5-1.3-2.7-1.4-4c-0.4-5.9,0.4-11.9-0.4-17.9
			c0-1.1,0-2.1,0-3.2c0.6-1.3,0.4-2.6,0.4-3.9c0-48.3,0-96.5,0-144.8c0-1.3,0.2-2.7-0.3-3.9c0-26.1-0.1-52.2-0.1-78.3
			c0-48.9,0-97.8-0.1-146.7C776.9,489.8,777.6,489.6,778.2,489.3z"/>
		<path class="st7" d="M776.4,871c1.9,5,0.4,10.1,0.9,15.2c0.2,2.2-0.6,4.6,0.9,6.7c0,39.6,0,79.3,0.1,118.9c-2.8-0.5-2-2.7-2-4.4
			C776.3,961.9,776.3,916.5,776.4,871z"/>
		<path class="st7" d="M776.4,715.1c1.3,1.6,0.8,3.5,0.8,5.3c0,47.2,0,94.4,0,141.6c0,1.9,0.5,4-0.8,5.8
			C776.4,816.9,776.4,766,776.4,715.1z"/>
		<path class="st8" d="M1049.1,992.6c-81.3,0-162.5,0-243.8,0.1c-4.4,0-6-1.6-5.9-5.8c0.2-6.8,0.1-13.7,0.1-20.5
			c0-150.4,0-300.8,0-451.1c0-7.6,0.2-7.7,8-7.5c10.5,0.2,21,0,31.5,0c151,0,302,0,453.1,0c5.7,0,6.1,0.5,6.1,7
			c0,77.3-0.1,154.5-0.1,231.8c0,79.3,0,158.5,0,237.8c0,8.2,0,8.2-8.2,8.2C1209.6,992.6,1129.3,992.6,1049.1,992.6
			C1049.1,992.6,1049.1,992.6,1049.1,992.6z"/>
		<path class="st9" d="M795.7,508.1c2.3,2.3,1.5,4.4,1.5,6.3c0,157.5,0,315,0,472.6c0,1.8,1.4,5.4-1.6,5.2c-2.5-0.2,0.1-3.3-0.3-5.1
			c-0.3-1.6,0-3.3,0-5c0-155,0-310,0.1-465.1C795.3,514.2,794.4,511.4,795.7,508.1z"/>
		<path class="st10" d="M1101.9,839c-6.7-3.1-9.6-9.6-12.9-15.3c-14.4-24.9-16.4-51.9-12.5-79.7c1.7-12.1,5.2-23.7,10.6-34.7
			c18.5-37.2,56.6-50.1,92.9-35.3c11.3,4.6,19.6,13.5,25.9,24c9.8,16.2,12.3,33.8,11.5,52.3c-0.2,4.5-0.7,9-0.9,13.4
			c-0.3,5-3.1,6.8-7.8,7.2c-10.6,0.9-21.3,0.8-31.9,0.9c-18.5,0.1-37,0.1-55.4-0.2c-4.8-0.1-6.1,1.6-5.6,6.1
			c1.4,13.8,5.6,26.3,16.8,35.5c5.5,4.5,11.8,7.4,18.9,8.5c16.4,2.5,32.5,1.5,47.9-5c3.8-1.6,5.3-0.7,5.3,3.4
			c0.1,7.8,0,15.6,0.2,23.5c0.1,4-1.8,6.4-5.4,8c-9.1,3.9-18.7,5.9-28.5,6.8c-19.9,1.8-39.3,0.2-57.1-9.8
			C1109.4,846.1,1104.8,843.6,1101.9,839c2-1.7,3.5-0.2,4.9,0.9c14.2,10.6,30.2,15.3,47.9,15.1c7.6-0.1,15.4,0.2,22.9-0.8
			c7.1-0.9,14.2-3,20.8-6c1.7-0.8,2.5-2,2.5-3.9c0-6.5,0-13,0-19.5c0-3.3-1.8-3.5-4.2-2.9c-4,1-8,1.9-12.1,2.8
			c-12.9,2.8-25.7,2.3-38.4-0.6c-8.7-2-15.7-7-21.1-14c-8.6-11.3-9.5-13.7-12.2-29.3c0.4,10.6,5,20.5,12.2,29.4
			c7.2,8.9,16.4,13.8,27.8,15.3c8.8,1.1,17.5,1.3,26.3,0.3c4.7-0.5,9.4-1.7,14.1-2.8c5.1-1.3,7.3,0.4,7.6,5.6c0.2,4.5,0.2,9,0,13.5
			c-0.2,3.7-2,6.2-5.6,7.4c-8.1,2.8-16.3,4.9-25,5.3c-18.6,0.8-36.9,0.5-53.8-8.6c-14.2-7.7-24.1-19-29.4-34.3
			c-1.9-5.5-4.2-10.7-5.5-16.4c-3.1-13.4-3-26.9-2.3-40.5c0.1-2.1,0.2-4.3,0.2-6.4c0.6-12.7,4.9-24.3,9.8-36
			c4.6-10.9,11.8-19.4,20.6-26.9c7.5-6.4,16.4-9.9,25.8-12.1c1-0.2,1.9-0.6,2.9-0.8c12.4-1,24.6-1.2,36.7,3.1
			c12.2,4.3,21.3,12.4,27.6,23.1c11.1,19,13.5,39.8,10.6,61.3c-0.7,5.3-3.2,7-8.4,7.3c-20.4,1.3-40.9,0.9-58.2,1
			c9.9,0,22.8,0.1,35.8,0c8.3-0.1,16.5-1.5,24.9-1c4.2,0.2,5.2-3,5.9-6.2c1.7-7.7,1-15.6,0.9-23.4c-0.2-10.2-2.4-20.3-6.3-29.3
			c-7-16.3-18.2-29-36.4-34.1c-11.3-3.2-22.5-2.8-33.9-1.5c-21,3.9-36.3,16.1-46,34.4c-7,13.2-12.3,27.5-12.1,43.1
			c-1.3,11.1-0.7,22.1-0.1,33.2c0.4,7.2,2.2,14,4.7,20.6c1.6,4.3,3.1,8.7,5,13c2.8,6.2,6.5,11.9,11.1,17
			C1101.5,835.5,1102.9,836.8,1101.9,839z"/>
		<path class="st11" d="M899.1,762.7c2.9-10.9,5.8-21.8,8.9-32.7c2.9-10.5,6.1-21,9.1-31.5c6.5-22.9,13-45.7,19.6-68.6
			c1.8-6.1,2.5-12.4,2.8-18.7c0.2-4.3,2.3-6,6.7-6c13.3,0.2,26.6,0.2,40-0.1c4.5-0.1,6.7,1.5,7.9,5.7c5.1,17.8,10.3,35.5,15.5,53.2
			c8.2,27.9,16.2,55.8,24.7,83.7c5.2,17,10.5,34,14.9,51.2c0.5,1.6,1.2,3.2-0.8,4.3c-2.1-0.4-3-2-3.5-3.8
			c-4.1-16-9.3-31.7-13.8-47.6c-4.5-15.9-9-31.7-13.9-47.5c-4.4-14-8.6-28.1-12.7-42.3c-2.2-7.7-4.3-15.6-6.7-23.3
			c-2.7-8.8-5.3-17.7-8-26.5c-0.5-3.2-2.9-4-5.5-3.7c-13.2,1.9-26.6,0.3-39.8,1c-0.3,0.3-0.7,0.6-1,0.9c-1.7,2.9-0.8,6-0.8,9
			c-2.3,12.5-6.3,24.5-9.9,36.5c-1.6,5.4-3,10.9-4.5,16.3c-4.7,16.4-9.3,32.9-14,49.3c-2.9,10.3-5.1,20.9-9.3,30.9
			c-1.3,3.2-1.3,7.1-2.8,10.5c-0.6,1.5-0.9,3.4-3.3,2.9C898.4,764.8,898.6,763.8,899.1,762.7z"/>
		<path class="st12" d="M899.1,762.7c0,1.1,0.1,2.2,0.1,3.2c3.1,4.3,0.1,8.5-0.9,12.3c-4.2,14.8-8.8,29.6-12.7,44.5
			c-0.2,0.8-0.4,1.6-0.7,2.4c-3,7.6-4.6,15.5-6.8,23.3c-0.7,2.6,0.2,3.7,2.9,3.6c8.3-0.4,16.6,0.1,24.8,0.4c4,0.1,4.6-2.6,5.4-5.3
			c1.9-6.9,3.3-13.8,5.2-20.7c2-7.4,4.3-14.8,5.8-22.4c1-5.4,2.6-10.6,4.5-15.7c1.3-2.1,2.4-4.5,4.9-5.6c2.9-1.2,5.9-0.8,8.9-0.7
			c15.6,0.3,31.3-0.5,46.9,0.5c3.3,0.2,6.6-0.6,9.9-0.5c6.4,0.3,8.4,1.5,10.3,8c3.3,11.5,6.6,22.9,9.7,34.5
			c2.1,7.8,4.4,15.6,6.7,23.4c0.9,3.2,2.5,4.6,6.1,4.3c8.8-0.7,17.6,0,26.4,0.1c1.5,0,3.1,0.5,3.5-1.7c-2-9.4-5.2-18.4-7.8-27.5
			c-1.6-5.7-3.8-11.2-4.5-17.1c-0.1-1.2-0.4-2.3,1.1-2.9c0.2-1.4,0.4-2.7,0.7-4.1c3.5,11.6,7.1,23.1,10.6,34.7
			c1.5,4.9,2.9,9.9,4.4,14.8c2.1,6.8,1,8.2-6.3,8.2c-9.5,0-19,0-28.5,0c-6.3,0-7.7-1.3-9.4-7.3c-5.3-19.6-10.9-39.1-16.1-58.7
			c-1-3.6-2.6-4.8-6.3-4.7c-20.6,0.1-41.3,0.1-61.9,0.1c-3.1,0-4.7,1-5.5,4.3c-5.3,20.6-11,41.1-16.4,61.6c-0.9,3.4-3.1,4.6-6.1,4.7
			c-10,0.1-20,0.1-30,0c-4-0.1-5.5-2.5-4.3-6.5c7.7-26.3,15.4-52.6,23.1-79C897.2,768.4,896.9,765.2,899.1,762.7z"/>
		<path class="st13" d="M1147.1,740.6c-8.3,0-16.6,0.1-24.9,0c-6.3-0.1-6.3-0.6-5-6.7c1.9-8.8,4.8-16.9,11-23.6
			c12.7-13.8,38.8-12.4,47.3,8.6c1.7,4.2,3.1,8.4,3.5,13c0.7,7.8-0.1,8.7-7.9,8.8C1163.1,740.7,1155.1,740.6,1147.1,740.6
			C1147.1,740.6,1147.1,740.6,1147.1,740.6z"/>
		<path class="st14" d="M1101.9,839c-4.9-6.3-10.1-12.3-13.7-19.5c-7.3-14.9-10.8-30.6-11.2-47.1c-0.2-7.5-0.4-15,1-22.4
			c0.9-0.8,1-2.9,3-2c0.5,2.6,0.5,5.2,0,7.9c-1.6,10.4,0.5,20.8,0.1,31.3c-0.2,4.8,2,9.5,3.5,13.8c2.9,8.2,5.7,16.8,10.6,24.2
			c7.1,10.6,17.1,17.7,28.9,22.7c17.6,7.5,36,5,54.1,4.7c6-0.1,12.2-2.7,18-5.3c2.2-1,2.8-2.6,2.7-4.8c-0.1-4.8-0.1-9.7,0-14.5
			c0.1-3.5-1.2-4.4-4.6-3.4c-10.1,3-20.4,3.7-31,3.5c-10.6-0.3-21.3-1.1-29.8-7.4c-8.3-6-14.5-14.3-18.6-24.1
			c-2.7-6.4-2.7-13.2-4.2-19.8c-0.4-1.6-0.7-3.2,1.5-3.4c2-0.1,1.7,1.7,1.8,2.9c0.5,12.3,4.4,23.3,12.4,32.9
			c7.1,8.4,16,13.1,26.7,14.8c16.1,2.5,31.7,0.7,46.9-5.3c2-0.8,2.9,0,2.9,1.9c0,8.5,0,17,0,25.5c0,1.8-1.2,3.1-2.9,3.7
			c-8.1,2.8-16.3,5.5-25,6.3c-10.8,1-21.5,1.5-32.3,0c-14.1-1.9-27.1-6.5-38.1-15.9C1103.9,839.4,1103,839,1101.9,839
			C1102,839,1101.9,839,1101.9,839z"/>
		<path class="st15" d="M1137,672c12.7-3.4,25.2-2.1,37.6,1.8c17.1,5.4,28.2,17.7,34.5,33.5c6.4,15.9,8.5,33.1,6,50.3
			c-1.6,11.3-2,10.7-13.2,11.4c-20.1,1.2-40.2,0.7-60.3,0.9c-1.8,0-3.6,0-6.1,0c2-3.1,4.4-3,6.8-3c9.5,0,19-0.3,28.4,0.1
			c11.7,0.4,23.2-1.6,34.8-1.1c2.9,0.1,4.7-1.4,5.7-3.9c0.9-2.2,1.6-4.3,1.6-6.7c0.2-12.3,0.7-24.7-3.2-36.5
			c-6.9-21.3-17.9-39.9-48-44.8c-8-1.3-15.8,0.9-23.8,0C1137.1,673.6,1136.9,672.9,1137,672z"/>
		<path class="st16" d="M1137,672c0.3,0.7,0.7,1.3,1,2c-3.4,1.7-7.2,2.4-10.7,3.7c-15.2,5.4-25.7,16-33.7,29.4
			c-4.4,7.4-7.4,15.5-9.3,23.9c-1.3,5.6-4.4,10.9-3.2,16.9c-1,0.7-2,1.3-3,2c0.5-13.4,4.4-25.7,9.9-37.9c4.2-9.2,9.5-17.3,16.7-24.1
			C1113.8,679.3,1124.3,673.3,1137,672z"/>
		<path class="st17" d="M883.1,824.7c2.4-12.3,6.7-24,10-36.1c2-7.5,5-14.8,6.1-22.6c3.5-10.6,6.6-21.4,9.6-32.2
			c5.9-21.4,12.2-42.7,18.3-64.1c4.8-16.9,9.5-33.8,14.3-50.7c1.1-3.5-0.4-7.2,0.9-10.7l0.1-0.1c14.4,0.4,28.8,1.2,43.1-0.5
			c3.6-0.4,5.6,1.2,6.8,4.4c1,7.8,4,15,6.2,22.5c5.1,18,10.5,35.8,15.8,53.7c4.1,13.9,8.5,27.8,12.6,41.7
			c3.9,13.1,7.4,26.4,11.5,39.5c3.5,11.2,5.8,22.7,10.3,33.5c3.5,15.9,8.8,31.4,13.6,47c0.9,1.8,0.8,3.4-1.5,3.7
			c-2,0.3-3.5-0.8-4.2-2.8c-0.7-2-0.4-4.3-1.7-6.2c-3.4-12.1-7.1-24.2-10.7-36.3c-2.8-9.4-5.7-18.7-8.5-28.1
			c-2.6-8.7-4.9-17.6-7.6-26.3c-4.2-13.6-8-27.4-11.9-41.1c-5.2-18.2-11.3-36.1-15.9-54.5c-2.6-10.3-6-20.3-9.7-30.2
			c-1.2-3.3-1.2-6.8-2.6-10.1c-1.1-2.6-2.5-4-5.5-4c-9.3,0-18.7,0.1-28,0c-4.1,0-6.1,2.1-6.9,5.8c-2.9,13.5-6.4,26.8-11.5,39.7
			c-1.3,3.2-1.6,6.8-2.4,10.2c-2.6,11.5-7.2,22.4-9.9,33.9c-2.7,11.6-5.7,23.3-9.7,34.5c-5.3,14.9-9,30.2-13,45.4
			c-3.3,12.5-8.2,24.6-10.4,37.4c-0.7,4.1-1.7,8.5-5.4,11.4c-3,0.2-4-1.3-2.9-3.9C882.7,827.2,882.4,825.9,883.1,824.7z"/>
		<path class="st18" d="M992.1,612.1c-2.2-2.8-4.6-3.5-8.4-3.4c-13.8,0.4-27.7,1.4-41.5-0.5c8.4-0.2,16.7-0.6,25.1-0.4
			c6.3,0.2,12.6,0.2,18.8-0.5C989.6,606.9,992.1,608,992.1,612.1z"/>
		<path class="st19" d="M942.1,608.3c-0.5,3.6,0.9,7.3-0.9,10.7C941.5,615.4,940.3,611.7,942.1,608.3z"/>
		<path class="st19" d="M885.1,831.9c3.9-11.1,6.1-22.6,9.8-33.8c3.3-9.9,5.8-20.2,8.3-30.4c2.9-12,7.2-23.5,10.4-35.4
			c2.2-8.1,6-15.9,6.4-24.5c0.1-2.3,1.5-4,2.1-6.1c2.3-7.6,3.5-15.6,7.1-22.9c1.8-3.6,2.2-7.9,2.8-12c1.1-6.6,3.7-12.7,5.8-18.9
			c3.2-9.2,5.6-18.7,7.3-28.3c1-5.6,3.3-7.7,9-7.7c8.7,0,17.3,0,26,0c7.9,0,9.6,1.2,10.7,8.9c0.9,6.2,4.1,11.7,5.4,17.5
			c1.4,6.6,4.4,12.6,5.8,19.1c2.1,9.5,5.5,18.7,8.1,28c2,7.4,5.4,14.5,6.1,22.4c0.3,3.5,2,7,3.1,10.5c3,9.5,5.5,19.2,8.1,28.8
			c1.8,6.5,4.3,13.1,6,19.7c2.8,11.4,7.9,22.1,9.6,33.7c0.5,3.2,2.3,6.1,3.4,9.1c2.9,8.2,3.9,17,7.7,24.9c1.3,2.7,1.3,6.1,1.8,9.2
			c-0.6,4.7-2.6,7.2-7.4,7.7c-5.4,0.6-11,0.8-16.4-0.1c-6-1-8.5-4.3-10.2-10.1c-2.3-7.8-4-15.7-6.1-23.5c-2.3-8.8-5.8-17.2-7.9-26.1
			c-0.4-1.8-1.3-3.4-1.9-5.1c-1.1-3.5-3.3-5-7.1-4.8c-14.2,0.5-28.5,0.1-42.7,0.2c-6.9,0-13.9-1.8-20.8-0.3c-1.8,0.4-3.7,0-4.3,2.4
			c-1,1.7-2,3.4-3,5.1c-1.7-0.4-2.5,0.4-2.9,1.9c-1.9,7.4-3.7,14.7-5.6,22.1c-2.8,11.2-6,22.3-9.1,33.4c-0.6,2.3-2.4,3.6-4.6,4.1
			c-7.4,1.9-14.8,1.6-22.2,0c-1.9-0.4-3.3-1.5-3.8-3.5C878.7,842.7,881.3,835.1,885.1,831.9z"/>
		<path class="st20" d="M931.2,784c-2-3,0-4.8,2.4-4.7c17.5,0.5,35,0,52.5,1.5c3.8,0.3,7-1.9,11.1-1.2c7.5,1.2,11.2,3.6,12.7,10.9
			c1.1,5.5,3.7,10.6,5,15.9c1.9,7.6,5,15,5.9,22.8c0.7,5.5,3.1,10.4,4.3,15.7c1,4.1,5.3,4.7,8.9,5c4.5,0.3,9,0.1,13.5,0.1
			c4.2,0,6.5-2.7,8.5-6c1.4,1.7,1.8,3.8,2,6c0.1,1.3,0.2,2.8,2,2.8c1.9,0,1.9-1.4,2-2.8c2.1,3.1,1.3,4.6-2.4,4.6
			c-10.6-0.1-21.2-1-31.9,0c-3.2,0.3-4.9-1.6-5.6-4.5c-3.4-12.5-6.5-25.1-10.4-37.4c-2.6-8.1-4.2-16.4-6.9-24.4
			c-1.1-3.3-2.8-4.3-6.2-4.3C976.2,784.1,953.7,784,931.2,784z"/>
		<path class="st21" d="M885.1,831.9c-1.6,4.3-3.1,8.7-3.6,13.3c-0.2,1.9-0.3,3.2,2.1,3.6c7.6,1.2,15.2,1.5,22.8,0
			c1.5-0.3,2.3-1.1,2.7-2.6c3.8-14.2,7.8-28.4,11.3-42.6c1.2-5,2.5-9.9,3.7-14.9c0.3-1.4,0.3-3.4,2.3-3.4c2.7,0,1.6,2.4,2,3.8
			c-2.7,8.6-4.5,17.5-7.1,26.2c-3.5,11.7-5.8,23.7-9,35.5c-0.7,2.7-2.5,3.9-5.1,3.8c-9.6-0.2-19.2-1-28.8-0.1
			c-2.7,0.3-3.8-1.3-3.1-3.7c2.5-8.7,5.3-17.4,7.9-26.1C884.4,826.9,879.9,830.8,885.1,831.9z"/>
		<path class="st22" d="M962.1,660c-0.2-4.6,1.7-8.8,2-13.3c0.1-1.4,0.8-2.8,2.2-3c1.9-0.2,2.5,1.4,2.9,2.9c1.4,5.6,2.5,11.3,4,17
			c6.8,26.7,13.7,53.5,21.3,80c1.4,4.9,0.3,6.3-4.9,6.4c-14.5,0-29,0-43.4,0c-7.4,0-8.1-1.1-5-8.1c2.4,4.8,6.5,5.8,11.6,5.6
			c10.8-0.3,21.6,0,32.4-0.2c2.6,0,6.2,0.4,5.3-4.3c-8.4-29.8-16.2-59.8-23.8-90.1c-1.2,2.5-1,5.3-3,7
			C963,660.4,962.6,660.4,962.1,660z"/>
		<path class="st23" d="M992.1,742c2.7,6.1,2.2,6.9-4.2,6.9c-13.3,0-26.6,0-39.8,0c-7.1,0-7.1,0-7-7c7-27.3,14-54.6,21-81.9
			c0.3,0,0.7,0,1,0c2.3,2,1.6,4.5,1.1,6.9c-3.3,15.2-7.2,30.4-11.2,45.4c-2.5,9.5-5.1,18.9-7.5,28.4c-1.1,4.4-0.6,5.2,3.8,5.1
			c12-0.4,23.9,0.2,35.8,0.2C988.7,746,990,743.7,992.1,742z"/>
		<path class="st24" d="M967.4,751c7.6,0,15.3,0,22.9,0c1.1,0,3.1-0.6,3,1.5c-0.1,1.3-1.6,1.5-2.8,1.5c-15.6,0-31.2,0-46.8,0
			c-1.2,0-2.8-0.2-2.8-1.5c0-2,1.9-1.4,3.1-1.4C951.8,750.9,959.6,751,967.4,751z"/>
		<path class="st25" d="M992.1,742c0.8,4.5-0.8,6.1-5.6,5.9c-13.3-0.3-26.6-0.2-39.9,0c-4.1,0-5.2-1.1-4-5.3
			c4.4-16,8.5-32.1,12.7-48.1c2.5-9.8,4.9-19.6,7.3-29.5c0.4-1.6,0.4-3.3,0.5-4.9c0.4-4.3,1.2-8.4,3-12.2c1.7,0.1,1.7,1.2,1.9,2.1
			c5.1,23,11.4,45.7,17.6,68.5C987.8,726.3,990,734.1,992.1,742z"/>
	</g>
</g>
</svg>
