<?xml version="1.0" encoding="utf-8"?>
<!-- Generator: Adobe Illustrator 24.3.0, SVG Export Plug-In . SVG Version: 6.00 Build 0)  -->
<svg version="1.1" id="Layer_1" xmlns="http://www.w3.org/2000/svg" xmlns:xlink="http://www.w3.org/1999/xlink" x="0px" y="0px"
	 viewBox="0 0 2100 1500" style="enable-background:new 0 0 2100 1500;" xml:space="preserve">
<style type="text/css">
	.st0{fill:#330100;}
	.st1{fill:#4D2221;}
	.st2{fill:#D1C6C6;}
	.st3{fill:#682F04;}
	.st4{fill:#613001;}
	.st5{fill:#733B05;}
	.st6{fill:#C17202;}
	.st7{fill:#FE9900;}
	.st8{fill:#B66A04;}
	.st9{fill:#723905;}
</style>
<g>
	<g>
		<path class="st0" d="M1516,285.6c0,1.3,0,2.7,0,4c-1.7,2.6-1,5.5-1,8.3c0,211,0,422,0,632.9c0,90.6,0,181.2,0,271.8
			c0,2.4-0.7,5,1,7.3c0,1,0,2,0,3c-1.1,1.4-2.6,2-4.4,2c-1.7,0-3.3,0-5,0c-304.4,0-608.9,0-913.3,0c-9.8,0-9.2,0.8-9.2-9.1
			c0-304.4,0-608.8,0-913.2c0-2.3-0.2-4.7,0.3-7c0.4-1.1,1.3-1.4,2.4-1.4c1.3,0,2.7,0,4,0c305.9,0,611.7,0,917.6,0
			C1511,284.1,1513.8,283.4,1516,285.6z"/>
		<path class="st1" d="M585.1,285.6c0.1,4.3,0.2,8.7,0.2,13c0,303,0,606,0,909c0,6.1,0,6.2,7.1,6.2c107,0,213.9,0,320.9,0
			c197.4,0,394.8,0,592.3,0c3.5,0,7,0.1,10.4-1c0,1.7,0.6,3.9-2.5,3c-0.6-0.2-1.3,0-2,0c-309.1,0-618.3,0-927.4,0
			c-0.9-1.7-0.5-3.6-0.5-5.4c0-306.4,0-612.9,0.1-919.3C583.7,289.3,582,286.7,585.1,285.6z"/>
		<path class="st2" d="M585.1,285.6c-1.3,1-0.9,2.4-0.9,3.7c0,305.5,0.1,611,0.1,916.6c0,3.3-0.2,6.6-0.2,9.9c-0.3-0.2-1,0.5-1-0.5
			c0-1.3,0-2.7,0-4c0-307.7,0-615.5-0.1-923.2c0-3.7,0.8-4.6,4.6-4.6c308,0.1,615.9,0.1,923.9,0.2c1.3,0,4.6-2.5,4.5,1.9
			c-2.3-0.8-4.6-0.6-6.9-0.6c-306.2,0-612.4,0-918.6,0C588.7,285,586.8,284.4,585.1,285.6z"/>
		<path class="st1" d="M1516,1209.8c-1.7-0.7-2-2.1-2-3.7c0-1.5,0-3,0-4.5c0-301.3,0-602.6,0.1-903.9c0-2.8-1.4-6.1,1.9-8.2
			C1516,596.3,1516,903,1516,1209.8z"/>
		<path class="st3" d="M961.5,530.2c14.7,0,29.3,0.1,44,0c6.3-0.1,11.2,1.4,13.9,8c1.9,4.6,4,9.3,5.1,13.9
			c2.5,10.2,7.3,19.5,10.1,29.6c1.4,5,4.1,10.1,5.7,15.2c3,9.1,7.3,17.7,9.6,27c1.5,6.2,4.8,11.5,6.4,17.6
			c2.9,10.7,8,20.6,10.9,31.3c1.1,4.2,3.5,7.8,4.8,12c3,9.8,7,19.2,10.5,28.9c3.4,9.7,6.6,19.4,10,29.1c1.9,5.3,4.1,10.5,6,15.8
			c2.1,5.7,3.6,11.6,6.1,17.3c4.4,9.9,7.8,20.3,11.1,30.6c3.2,9.9,8.3,19.1,10.1,29.3c0.7,4,3,7.3,4.4,11
			c3.6,9.7,7.2,19.5,10.5,29.3c3.1,9.4,7.3,18.5,9.8,28.1c1.5,5.6,4,10.8,6.1,16.2c0.5,1.4,1.3,2.7,1.7,4.1
			c2.8,9.9,0.2,13.4-10,13.4c-23.3,0-46.6,0-70,0c-9.3,0-10.7-1.1-14.2-9.9c-3.1-7.8-5-16.1-7.9-23.9c-3.9-10.2-6.1-20.8-10.6-30.8
			c-2.5-5.7-4-11.9-5.5-18c-1.4-5.6-4.3-10.7-5.6-16.3c-0.7-3.1-4-2.9-6.8-2.9c-13,0-26,0-39,0c-28.5,0-57,0-85.5,0
			c-9.3,0-9.3,0-12.4,8.8c-4.4,12.5-7.4,25.4-11.7,37.8c-3.9,11.4-6,23.3-11,34.3c-1.8,4.1-1.3,8.8-3.6,12.9c-2.9,5.2-6.7,8-12.7,8
			c-22.2,0-44.3,0-66.5,0c-7.8,0-11-4.4-8.6-11.8c3.8-11.8,8.2-23.4,12.1-35.1c3.3-10,7.5-19.8,10.3-30c1.7-6,3.4-12.1,6.4-17.7
			c2.1-4,2.6-8.8,4.4-13.1c3.8-9.5,6-19.6,9.8-29c4-9.8,6.3-20.1,10.6-29.8c2.2-5.1,3.3-10.7,5.4-16c4.3-10.4,6.3-21.5,11.4-31.7
			c2-4.1,2.6-8.8,4.1-13.2c3.4-10.3,7.2-20.5,10.4-30.9c2.7-8.8,5.7-17.6,9.3-26.1c2.6-6.1,3.6-12.7,6.5-18.8
			c4.9-10.3,6.6-21.7,11.5-32c2.2-4.7,2.8-10.1,4.8-15.1c2.9-7.2,6-14.4,7.5-21.9c1.8-8.9,5.8-17.4,5.6-26.7
			c-0.1-6.7,1.8-8.7,8.6-8.7C930.8,530.2,946.1,530.3,961.5,530.2C961.5,530.3,961.5,530.3,961.5,530.2z"/>
		<path class="st4" d="M1284,784.1c0,46.1,0,92.3,0,138.4c0,9.6-1.9,11.5-11.3,11.5c-21.2,0-42.3,0-63.5,0c-8.4,0-9.8-1.3-10.7-9.6
			c-0.2-2.1-0.3-4.3-0.3-6.5c0-89.3,0-178.5,0-267.8c0-0.7,0-1.3,0-2c0.1-11.7,2.5-14,14.1-14c19.7,0,39.3,0,59,0
			c10.4,0,12.7,2.2,12.7,12.6C1283.9,692.6,1283.9,738.4,1284,784.1C1283.9,784.1,1284,784.1,1284,784.1z"/>
		<path class="st5" d="M1292,545.4c2.1,28.1-23.2,51.2-50.4,51.2c-28.7-0.1-49.7-23.4-49.9-51.5c-0.1-25.9,22.1-50.6,52.7-50
			C1270.2,495.5,1293.9,517.2,1292,545.4z"/>
		<path class="st6" d="M1113.1,935.8c-11.7,0-23.3,0-35,0c-8.3,0-9.9-1.3-12.5-9.1c-4.9-14.4-10-28.8-14.7-43.3
			c-3.5-10.5-6.4-21.3-9.9-31.8c-1.5-4.6-3.4-9-4.6-13.6c-0.9-3.5-3.9-4.1-7.1-4.1c-13,0-26,0-39,0c-28.7,0-57.3,0-86,0
			c-11.9,0-12.1-0.1-15.7,11.3c-3.8,11.9-7,23.9-10.7,35.8c-3.3,10.8-6.7,21.5-10.3,32.2c-1.6,4.9-2.4,10-4.3,14.9
			c-1.9,4.8-5,7.4-10,7.6c-5.2,0.2-10.3,0.2-15.5,0.2c-16.7,0-33.3,0.1-50,0c-9.3,0-11.4-2.5-8.6-11.2c3.3-10.3,7.2-20.3,10.8-30.5
			c4.7-13.5,9.1-27,13.8-40.5c3.7-10.6,7.6-21.2,11.3-31.8c3.5-10,6.8-20.1,10.2-30.1c3.1-9.3,6.3-18.5,9.5-27.8
			c3.5-10.2,7.2-20.4,10.7-30.5c5.1-14.5,10.2-29.1,15.2-43.6c3.6-10.3,6.7-20.9,10.6-31.1c3.7-9.8,6.6-19.8,10.4-29.5
			c3.5-9.1,6.3-18.5,9.6-27.7c3.7-10.3,7.1-20.7,10.4-31.1c3.2-9.9,6.6-19.9,6.4-30.6c-0.1-5.8,1.2-7.2,7-7.2
			c31.2-0.1,62.3,0,93.5-0.1c4.3,0,7,1.4,8.6,5.9c5.5,14.6,10.5,29.4,15.7,44.1c4.8,13.6,10,27,14.9,40.5
			c6.2,17.3,12.2,34.7,18.4,52.1c5,13.9,10.2,27.7,15.2,41.6c3.4,9.5,6.4,19.2,9.9,28.7c3.5,9.7,7.3,19.2,10.8,28.8
			c3.3,8.9,6.3,17.8,9.5,26.7c3.6,10.1,7.3,20.3,10.9,30.4c3.3,9.4,6.6,18.7,10,28.1c4.9,13.7,9.9,27.4,14.9,41.2
			c3.2,8.7,6.5,17.4,9.5,26.2c2.1,6,0,9.1-6.3,9.2C1138.1,935.9,1125.6,935.8,1113.1,935.8C1113.1,935.8,1113.1,935.8,1113.1,935.8z
			"/>
		<path class="st7" d="M1281.2,784.7c0,46.1,0,92.2,0,138.3c0,7.3-1.6,8.9-8.7,8.9c-20.5,0-41,0-61.5,0c-8.3,0-9.9-1.7-9.9-10
			c0-91.4,0-182.8,0-274.2c0-9.6,1-10.6,10.6-10.5c20,0,40,0,60,0c8.2,0,9.3,1,9.3,9.1c0,46.1,0,92.2,0,138.3
			C1281.1,784.7,1281.2,784.7,1281.2,784.7z"/>
		<path class="st7" d="M1195,545.4c-1-27.8,20.7-47.9,48.9-47.6c27,0.3,45.5,18.4,45.9,47.2c0.4,28.1-20.1,49-48.1,48.9
			C1214.6,593.8,1194.3,574.4,1195,545.4z"/>
		<path class="st7" d="M962.6,534.4c15.3,0,30.7,0.1,46,0c3.8,0,5.5,1.1,7.1,5.1c5.4,13.2,9.2,26.9,14.6,40.1
			c3.7,9,6.1,18.6,9.8,27.6c4,9.8,7,19.9,10.8,29.8c3.5,9.3,6.6,18.7,10,28.1c3.6,9.9,7.2,19.9,10.8,29.8c1.7,4.8,3.2,9.7,5,14.6
			c7,18.6,13.2,37.5,20.2,56.1c6.4,16.7,11.8,33.8,17.9,50.6c5.1,14.2,10.9,28.2,15.5,42.6c4.3,13.3,9.6,26.2,13.9,39.4
			c3.2,9.6,6.9,19,10.6,28.4c1.7,4.4,0.9,6.5-3.8,6.6c-25.5,0.1-51,0-76.5,0c-4.3,0-6.3-2.1-7.6-6.3c-2.9-10-6.3-19.9-9.8-29.8
			c-2-5.6-3.5-11.4-5.5-17.1c-4.9-14.3-9.3-28.7-13.7-43.2c-1.1-3.5-3.3-4.7-6.7-4.7c-7.2,0-14.3,0-21.5,0c-37.3,0-74.6,0.1-112-0.1
			c-4.8,0-7.7,1.3-9.3,6.2c-2.8,8.5-4.9,17.2-7.7,25.7c-3.4,10.4-6.4,20.9-9.6,31.4c-3.3,10.8-7,21.5-10.2,32.3
			c-1.1,3.6-3.4,5.4-6.8,5.4c-23.3,0.1-46.6,0.1-70,0.1c-4.3,0-5-2.7-3.9-6.1c3.2-9.5,6.5-18.8,9.7-28.3
			c3.6-10.8,7.8-21.5,11.1-32.4c3-10,6.9-19.7,10.4-29.5c3.4-9.7,6.8-19.4,10.1-29.1c3.5-10.2,7.5-20.2,10.5-30.6
			c3.1-10.7,7.7-20.8,10.7-31.5c2.9-10.2,7.1-20,10.6-29.9c1.6-4.5,3-9.1,4.6-13.7c7.8-22.1,15-44.3,22.6-66.4
			c4.7-13.6,9.9-27.1,14.6-40.7c4.4-12.9,8.4-25.8,12.5-38.8c1.4-4.6,1.4-9.6,1.4-14.4c0-6.5,0.3-7,7-7.1
			C931.9,534.3,947.3,534.4,962.6,534.4z"/>
		<path class="st8" d="M966,769.2c-15.5,0-31,0-46.5,0c-6.5,0-7.4-1.7-5.6-8c4.9-16.7,9.3-33.6,14.3-50.3c4.6-15.4,9.9-30.6,14.6-46
			c3.5-11.4,6.3-23.1,10.1-34.4c2.7-8.1,3.4-16.6,6.4-24.6c0.7-2,1.4-4.5,4.1-4.3c2.9,0.2,3.3,2.8,3.8,5.1c3.8,19.6,10,38.5,16,57.4
			c4.4,13.9,8.4,28,13.3,41.7c4.9,13.6,10.4,26.9,15.6,40.3c2,5.1,4.2,10.1,5.9,15.3c1.8,5.4,0.3,7.5-5.5,7.5
			C997,769.2,981.5,769.2,966,769.2z"/>
		<path class="st9" d="M966,767.2c-14.5,0-29,0-43.5,0c-7.7,0-8.9-1.1-6.2-8.5c6.1-16.5,9.6-33.9,15-50.6
			c6.6-20.4,12.2-41.1,18.7-61.5c3.5-11.1,6.7-22.3,9.1-33.6c0.3-1.5,0.8-2.9,1.5-4.2c0.6-1.2,1.6-2.3,3.1-2.1
			c1.6,0.2,2.1,1.5,2.3,2.9c0.8,5.3,2.1,10.4,3.6,15.5c3.5,11.7,6.1,23.8,10.2,35.3c3.7,10.5,7.2,21.1,10.3,31.7
			c3.9,13.6,9.7,26.4,14.5,39.7c3.3,9.1,6.1,18.6,11,27.1c3.2,5.5,1.3,8.4-5.1,8.4C995.6,767.2,980.8,767.2,966,767.2
			C966,767.2,966,767.2,966,767.2z"/>
		<path class="st0" d="M1009.9,765.7c-28.8,0-58.4,0-88.1,0c-4.4,0-5.7-1.3-4.5-5.8c1.1-4.2,3.2-7.9,4.5-12.1
			c3.7-12,6.7-24.3,10.2-36.3c3.4-11.7,6.9-23.5,10.7-35c3.6-11.2,6.7-22.5,10.4-33.7c2.5-7.4,5.8-14.9,5.9-23.1c0-0.3,0-0.7,0.1-1
			c1-3,0.5-8.2,3.9-8.3c3.6-0.1,1.7,4.9,2.6,7.5c2.3,7.1,4,14.4,6.6,21.4c1.7,4.5,2.2,9.3,3.6,13.9c2,6.8,4.9,13.3,6.5,20.2
			c1.6,6.5,3.7,13,6.3,19.3c2.3,5.6,2.8,11.8,5.7,17.4c4.8,9.2,6.9,19.5,11.3,29c2.1,4.7,4.2,9.7,5.4,14.8c0.5,2.2,1.7,3.9,3,5.7
			c1,1.4,1.9,2.9,1,4.6C1014.2,766,1012.5,765.9,1009.9,765.7z"/>
	</g>
</g>
</svg>
