<?xml version="1.0" encoding="utf-8"?>
<!-- Generator: Adobe Illustrator 24.3.0, SVG Export Plug-In . SVG Version: 6.00 Build 0)  -->
<svg version="1.1" id="Layer_1" xmlns="http://www.w3.org/2000/svg" xmlns:xlink="http://www.w3.org/1999/xlink" x="0px" y="0px"
	 viewBox="0 0 2100 1500" style="enable-background:new 0 0 2100 1500;" xml:space="preserve">
<style type="text/css">
	.st0{fill:#01A8CD;}
	.st1{fill:#FCDA24;}
	.st2{fill:#2BB7D6;}
	.st3{fill:#ECDC1A;}
	.st4{fill:#BCB11D;}
	.st5{fill:#C9ECF4;}
	.st6{fill:#2B2B2B;}
	.st7{fill:#FBDF48;}
	.st8{fill:#1A7B92;}
	.st9{fill:#38656E;}
	.st10{fill:#ACC6CB;}
	.st11{fill:#0CA4DB;}
	.st12{fill:#01BCE6;}
	.st13{fill:#0CA5DC;}
	.st14{fill:#01BDE6;}
	.st15{fill:#0389A7;}
	.st16{fill:#0285A3;}
	.st17{fill:#032B36;}
	.st18{fill:#4B420B;}
	.st19{fill:#038EAC;}
	.st20{fill:#3E3508;}
	.st21{fill:#0285A4;}
	.st22{fill:#BEB61F;}
	.st23{fill:#023B47;}
	.st24{fill:#443D0B;}
	.st25{fill:#038FAA;}
	.st26{fill:#022F3A;}
	.st27{fill:#02839F;}
	.st28{fill:#012B35;}
	.st29{fill:#013C49;}
	.st30{fill:#038DAC;}
	.st31{fill:#3B3409;}
	.st32{fill:#023E49;}
	.st33{fill:#3C3609;}
	.st34{fill:#01758E;}
	.st35{fill:#003F4C;}
	.st36{fill:#443B0A;}
	.st37{fill:#A69C1A;}
	.st38{fill:#013D4A;}
	.st39{fill:#008EAB;}
	.st40{fill:#023C49;}
	.st41{fill:#0287A4;}
	.st42{fill:#B2A91B;}
	.st43{fill:#0191B0;}
	.st44{fill:#48410B;}
	.st45{fill:#433B0B;}
	.st46{fill:#C4BA1E;}
	.st47{fill:#027E97;}
	.st48{fill:#023742;}
	.st49{fill:#5C530F;}
	.st50{fill:#B7AE1C;}
	.st51{fill:#F4EE13;}
	.st52{fill:#F3ED13;}
	.st53{fill:#FCF328;}
	.st54{fill:#FCF228;}
	.st55{fill:#C8BC1E;}
	.st56{fill:#B8AE1E;}
	.st57{fill:#0193B2;}
	.st58{fill:#0192B2;}
	.st59{fill:#008CAA;}
	.st60{fill:#018DAC;}
	.st61{fill:#028EAD;}
	.st62{fill:#0289A6;}
	.st63{fill:#C6BC1E;}
	.st64{fill:#C0B71E;}
	.st65{fill:#C6BB1E;}
	.st66{fill:#BDB51E;}
	.st67{fill:#CEC221;}
	.st68{fill:#BAAF1D;}
	.st69{fill:#B3A71C;}
</style>
<g>
	<g>
		<path class="st0" d="M2099.9,1270.9c0,0.7,0,1.3,0,2c-1.1,0.9-2.4,1-3.8,1c-2,0-4,0-6,0c-689,0-1378,0-2067,0c-2.3,0-4.6,0-6.9,0
			c-4.7-1.1-2.2-3.2-0.4-4.6c4-3.2,8.8-5.3,13.2-7.9c13.8-8.1,27.9-15.9,41.7-23.9c25.5-14.7,50.9-29.8,76.6-44.2
			c15.6-8.7,31.1-17.6,46.4-26.8c14.8-9,30.2-17,45.1-26c21.4-12.9,43.5-24.4,64.7-37.7c14.3-9,29.3-16.8,43.9-25.3
			c15.9-9.2,31.9-18.2,47.8-27.3c14.1-8.1,28.1-16.2,42.2-24.3c12.5-7.2,25.1-14.1,37.3-21.8c8.7-5.5,18-9.9,26.8-15.2
			c11.1-6.6,22.4-12.8,33.4-19.3c11.8-7,23.9-13.6,35.7-20.5c11.3-6.6,22.9-12.7,33.9-19.8c2.4-1.5,5-1.8,7.7-1.6
			c492.8,0,985.6,0,1478.4,0.1c2.8,0,6.1-1.4,8.2,2c0.5,2.5,0.3,5,0.3,7.5c0,108.3,0,216.6,0,324.9
			C2098.9,1265.1,2098.5,1268.1,2099.9,1270.9z"/>
		<path class="st0" d="M2099.9,227.6c0,0.7,0,1.3,0,2c-1.4,2.8-1,5.9-1,8.8c0,108.2,0,216.4,0,324.7c0,2.5,0.2,5-0.2,7.5
			c-0.7,1.9-2.3,2.2-4,2.3c-1.2,0-2.3,0-3.5,0c-492.4,0-984.7,0-1477.1,0c-1.2,0-2.3,0-3.5,0c-7.8-0.8-13.9-5.5-20-9.4
			c-12.2-7.8-24.9-14.5-37.3-21.9c-14.7-8.7-29.5-17.2-44.3-25.7c-17.6-10-35.6-19.4-52.7-30c-15.6-9.7-31.8-18.6-47.6-28
			c-13.2-7.8-26.9-15-40.1-22.9c-15.1-9-30.4-17.8-45.7-26.4c-29.1-16.4-57.5-33.8-86.7-50.1c-26.2-14.6-52-30-78-45
			c-25.6-14.7-51-29.7-76.7-44.2c-15.9-9-31.5-18.3-47.4-27.3c-5.8-3.2-11.5-6.6-17.2-10.1c-1.5-0.9-3.1-2.1-2.6-3.8
			c0.5-2,2.7-1.4,4.3-1.5c1.7-0.1,3.3,0,5,0c689.1,0,1378.2,0,2067.3,0c2.5,0,5-0.1,7.6,0.1C2098.9,226.9,2099.4,227.2,2099.9,227.6
			z"/>
		<path d="M0.1,229.6c0-0.7,0-1.3,0-2c0.4-0.3,0.8-0.6,1.2-0.8c2.4-0.2,4.5,0.5,6.6,1.7c31.7,18.6,63.6,36.8,95.5,55.2
			c16.1,9.3,32.2,18.7,48.4,27.9c1.5,0.8,2.8,1.8,4.1,2.8c9.9,7,20.8,12.5,31.3,18.5c15.1,8.7,30,17.9,45.5,25.9
			c12,5.8,23.1,13,34.7,19.5c3.6,2.8,7.9,4.3,11.4,7.1c9.6,6.5,20.1,11.5,29.8,17.8c35.3,20.3,70.4,40.8,105.7,61
			c10.9,6.3,21.8,12.6,32.9,18.7c4.2,2.1,7.9,5.1,12.2,6.8c0.5,0.1,0.9,0.3,1.3,0.5c7.4,5,15.1,9.5,23.1,13.4
			c11.9,5.6,22.9,12.8,34.3,19.3c15.6,8.9,31.3,17.6,46.5,27.1c5.9,4.3,12.3,7.8,18.8,11.2c8.4,5.5,17.1,10.3,26,14.8
			c8.4,4.4,16.6,9,24.6,14c7.5,6.2,16.3,10.2,24.5,15.1c20.3,11.9,40.8,23.5,61.2,35.2c5.7,3.3,11.1,7.3,17.4,9.4
			c8.5,4.2,16.5,9.2,24.8,13.8c16.5,9.3,32.7,19.2,49.3,28.4c2.4,2.1,5.6,2.9,7.9,5.2c9.1,7.1,19.6,11.9,29.4,17.7
			c14.6,8.6,29.3,16.9,44,25.5c3.7,2.2,7.7,4,11.3,6.3c3.7,2.4,3.8,4.7,0.1,7c-2.7,1.6-5.6,3-8.2,4.7c-6.9,4.2-14.2,7.9-21.1,12.2
			c-13.7,7.8-27.4,15.6-40.9,23.7c-4.2,2.3-7.9,5.3-12.4,7.2c-11.3,6.2-22.7,12.3-33.2,19.8c-2.2,2.2-5.4,2.9-7.7,5
			c-4.9,2.4-9.3,5.6-14.1,8.2c-10,4.7-19.2,10.9-29,16.1c-6.8,2.6-12.9,6.6-19.2,10.3c-17.8,10.5-35.9,20.6-53.7,31.2
			c-6.8,3.1-12.9,7.7-19.6,11.1c-1.9,0.7-3.5,2-4.9,3.4c-0.9,0.8-1.8,1.4-2.9,1.9c-10.1,5-20.1,10.1-29.3,16.7
			c-6.6,5.1-14.1,8.8-21.3,12.9c-18.7,10.7-37.3,21.6-56.1,32.3c-13,7.4-25.7,15.1-38.9,22.1c-10.6,5.2-20.9,11.1-30.8,17.7
			c-7.3,5.3-15.9,8.7-23.2,14c-6.4,3.7-13,7-19.1,11.1c-8.1,3.6-15.1,9.1-23,13c-10.3,5.1-19.9,11.7-30.1,17
			c-7.8,3.3-14.6,8.5-22.1,12.3c-6.4,3.2-12.5,7-18.6,10.6c-9.5,5-18.7,10.5-27.9,15.9c-5.8,3.4-11.8,6.6-17.4,10.4
			c-0.4,0.3-0.8,0.5-1.2,0.7c-4.6,2.4-9.8,3.8-13.2,8.1c-15.6,9.7-31.8,18.4-47.7,27.8c-4.6,2.7-9.3,5.1-13.7,8
			c-17.5,9.7-34.7,19.7-51.9,29.8c-3.6,1.4-6.5,4.2-10.3,5.3c-7.9,3.1-14.8,8.2-22.2,12.2c-8,4.4-15.8,9.1-23.7,13.7
			c-1.3,0.8-2.5,1.6-3.6,2.7c-9.4,6.3-19.3,11.5-29,17.3c-7.4,4.4-15,8.5-22.4,12.9c-9.8,4.8-18.8,10.9-28.2,16.3
			c-2.6,1.5-5.1,2.9-8,3.9c-1.4,0.1-3,0.9-4.3-0.4c0-0.7,0-1.3,0-2c1.5-3,1-6.2,1-9.3c0-260.3,0-520.6,0-780.9
			c0-80.9,0-161.9,0-242.8C1.1,235.1,1.5,232.2,0.1,229.6z"/>
		<path class="st1" d="M2099.9,921.1c0,0.7,0,1.3,0,2c-1.3,0.7-2.5,0.1-3.7-0.4c-3-1.3-6.2-1.1-9.4-1.1c-31,0-62,0-93,0
			c-453,0-906,0-1359,0c-3.3,0-6.7,0.5-9.9-0.5c-2.2-1.7-0.8-2.5,0.7-3.6c4.7-3.5,9.9-6.1,14.8-9c19.4-11.3,39.1-22.3,58.4-33.7
			c15.9-9.4,32.1-18.6,48.1-27.8c14.5-8.3,29-16.5,43.4-25c25.2-14.9,50.6-29.3,76.1-43.7c12.1-6.8,23.8-14.3,36.1-20.7
			c1.5-0.8,2.5-2.1,3-3.8c2.3-2.4,1.9-4.7,0-7.1c-0.2-1.7-1.4-2.7-2.7-3.4c-20.4-11.4-40.4-23.3-60.8-34.7
			c-16.1-9.1-31.8-18.9-47.9-27.9c-18.8-10.5-37.1-21.7-55.9-32.1c-11-6.1-22-12.1-32.7-18.8c-10-6.4-20.5-12-30.8-17.9
			c-9.6-5.5-19.4-10.8-28.8-16.6c-6.8-4.1-13.9-7.7-20.5-12c-2.1-1.4-3.1-2.8,0.2-4.1c3.3-0.3,6.7-0.2,10-0.2
			c482.8,0,965.6,0,1448.4,0c3.8,0,7.7,0.4,11.4-0.9c0.9-0.3,1.7-0.8,2.6-1c0.6-0.1,1.2,0.1,1.7,0.4c0,0.7,0,1.3,0,2
			c-1.1,2.2-1,4.5-1,6.8c0,109.4,0,218.7,0,328.1C2098.9,916.6,2098.8,919,2099.9,921.1z"/>
		<path class="st2" d="M14.1,1272.9c10.7,0,21.3,0,32,0c682.3,0,1364.6,0,2046.8,0c2.3,0,4.7,0,7,0c-0.4,0.6,1,2.1-1,2
			c-1.2-0.1-2.3,0-3.5,0c-697.1,0-1394.2,0-2091.3,0c-0.4-2.3,1.2-2.5,2.8-2.9C9.2,1272.8,11.9,1270.7,14.1,1272.9z"/>
		<path class="st2" d="M2099.9,1270.9c-2.3-2-2-4.8-2-7.4c0-111.1,0-222.2,0-333.4c-0.2-2.3-2-2.4-3.6-2.5c-1.5-0.1-3,0-4.5,0
			c-489.4,0-978.8,0-1468.2,0c-3.2,0-6.3,0.4-9.5,0.5c-1.6,0-3.3,0.1-4.3-1.6c-0.5-1.5,0.3-2.4,1.5-3.2c0.6-0.2,1.3-0.3,1.9-0.2
			c492.5-1.3,984.9-0.2,1477.4-0.5c3.8,0,7.7-0.7,11.2,1.5C2099.9,1039.7,2099.9,1155.3,2099.9,1270.9z"/>
		<path class="st3" d="M2099.9,924.1c-2,0.1-4,0.4-6,0.4c-489.4,0-978.9,0-1468.3-0.1c-5.3,0-10.6,1.4-15.8-0.5
			c-0.3-1.4,0.5-2.2,1.6-2.8c8.8-4.1,16.9-9.7,25.5-14.1c0.7-0.6,1.5-1.2,2.2-1.7c2.3-1.1,4.6-2.4,6.8-3.7c1.8-0.7,3.3-2.2,5.3-2.4
			c0.8,0,1.4,0.2,2,0.8c-1.9,4.6-6.8,5.3-10.3,7.6c-7,4.6-14.8,7.9-21.3,13.1c3.6,0.6,7.1,0.4,10.6,0.4c485.6,0,971.3,0,1456.9,0
			c2.9,0,6-0.7,8.8,1c0.7,0.3,1.3,0.7,2,1C2099.9,923.5,2099.9,923.8,2099.9,924.1z"/>
		<path class="st4" d="M2099.9,577.3c-0.4,0.1-0.8,0.1-1.1,0.2c-2,1-4.1,1.4-6.3,1.3c-2.3-0.1-4.7,0-7,0c-488.1,0-976.2,0-1464.2,0
			c-0.5,0-1,0-1.5,0c-0.5,0.1-1.1,0-1.6,0.2c0.8,0.3,1.5,0.7,2.2,1c4.6,2.8,9.2,5.6,14,8.1c1.7,0.9,3.8,1.7,2.9,4.4
			c-1.7,0.8-2.8-0.5-4-1.3c-8.1-4.6-16.2-9.2-24.3-13.7c-0.2-0.7-0.1-1.3,0.2-1.9c1.1-1.5,2.8-1.7,4.5-1.7c2-0.1,4,0,6,0
			c490.1,0,980.2,0,1470.3,0c3.4,0,7-1.1,10.1,1.4C2099.9,576,2099.9,576.7,2099.9,577.3z"/>
		<path class="st2" d="M2099.9,575.3c-2.3,0.1-4.7,0.3-7,0.3c-490.5,0-981.1,0-1471.6,0c-4.1,0-8.3-0.7-12.4,0.5
			c-2,0.1-2.5-0.9-2-2.7c1.4-1.7,3.4-0.9,5.2-1.1c5.8,0.7,11.6,0.5,17.5,0.5c486.3,0,972.6,0,1458.8,0c2,0,4,0.1,6,0
			c1.7-0.1,3.4-0.2,3.6-2.5c0-111.1,0-222.2,0-333.3c0-2.6-0.3-5.4,2-7.4C2099.9,344.8,2099.9,460.1,2099.9,575.3z"/>
		<path class="st5" d="M2099.9,227.6l-0.4-0.3l-0.5,0.1c-1.8-0.7-3.6-0.4-5.4-0.4c-691.3,0-1382.6,0-2073.9-0.1
			c-4.9,0-9.8,2.6-14.7,0.2c-0.6-0.4-0.9-0.9-0.9-1.7c697.1,0,1394.2,0,2091.3,0.1C2096.7,225.7,2100,223.2,2099.9,227.6z"/>
		<path class="st6" d="M0.1,229.6c2,1.7,1.9,4.1,1.9,6.5c0,6,0,12,0,18c0,336,0,672,0,1008c0,3.1,0.8,6.4-1.9,8.9
			C0.1,923.8,0.1,576.7,0.1,229.6z"/>
		<path class="st7" d="M2099.9,921.1c-1.9-1.8-2-4.1-2-6.4c0-109.6,0-219.3,0-328.9c0-2.4,0-4.7,2-6.4
			C2099.9,693.3,2099.9,807.2,2099.9,921.1z"/>
		<path class="st8" d="M6.9,1272.8c-1.3,0.2-2.3,0.9-2.8,2.1c-0.3,0-0.7,0-1,0c-1-1.2-0.5-2,0.8-2.6c12.1-6.8,23.6-14.5,36.2-20.5
			c0.4,0.4,0.5,0.8,0.5,1.4c-0.3,1.4-1.3,2.3-2.4,2.9c-8.7,5-17.4,10-26.1,15.1C10.5,1272.2,8.9,1273.3,6.9,1272.8z"/>
		<path class="st9" d="M3.9,1272.4c-0.3,0.9-0.5,1.7-0.8,2.6c-1.3-0.3-3.6,1.1-3-2C1.4,1272.7,2.6,1272.5,3.9,1272.4z"/>
		<path class="st10" d="M4.1,225.6c0.1,0.3,0.1,0.6,0.2,0.9c-0.1,0.2-0.2,0.3-0.3,0.5c-0.7,0.5-1.5,0-2.2,0.3
			c-0.6,0.1-1.2,0.2-1.7,0.3C-0.2,223.6,2.8,226.4,4.1,225.6z"/>
		<path class="st11" d="M611,927.1c7.6-1.4,15.3-0.9,22.9-0.9c485,0,969.9,0,1454.9,0c2.3,0,4.7-0.1,7,0.3c1.8,0.3,3.8,1.1,2.1,3.7
			c-2.4-1.7-5.2-1-7.8-1c-414.6,0-829.1,0-1243.7,0c-78.8,0-157.6,0-236.4,0C609.4,928,610.5,927.7,611,927.1z"/>
		<path class="st12" d="M611,927.1c-0.3,0.7-0.7,1.3-1,2c-1.7,0-3.2,0.6-4.7,1.5c-22.9,13.2-45.8,26.2-68.6,39.5
			c-25.7,14.9-51.2,29.9-76.9,44.8c-25.3,14.6-50.7,29-76,43.5c-26.4,15.2-53,30.2-79.2,45.8c-17.5,10.4-35.6,19.9-53,30.5
			c-20.1,12.3-40.9,23.3-60.9,35.6c-18.3,11.3-37.5,21.3-56.2,32c-19,10.9-37.7,22.2-56.7,33.1c-19.1,11-38.4,21.8-57.5,32.7
			c-2.3,1.3-4.6,2.7-6.2,4.9c-2.4-0.2-4.8,2.1-7.2-0.1c11.1-6.6,22.1-13.2,33.2-19.9c10.2-7.1,21.5-12.5,32.1-19
			c8.1-4.9,16.5-9.2,24.2-14.7c10.3-6.4,20.7-12.5,31.3-18.2c8.1-4.9,17.1-8.3,24.8-13.9c14.6-7.8,28.7-16.5,43.1-24.5
			c2.5-1.4,4.4-3.6,7.2-4.3c20-11.3,40-22.4,59.6-34.4c10.9-6.7,22.4-12.4,32.9-19.7c9.3-6.1,19.1-11.2,28.6-16.8
			c12.8-7.1,25.5-14.5,38.2-21.8c0.9-0.5,1.7-1,2.7-1.3c10.3-5.2,20-11.4,30-17c8-3.7,15.2-8.9,23-12.9c6.8-4.2,14-7.6,20.6-12.2
			c8.4-5,17.1-9.2,25.1-14.9c6.8-4.3,13.8-8.3,20.9-12.1c1.7-0.8,3.4-1.5,4.9-2.7c0.4-0.3,0.8-0.5,1.3-0.6
			c14.7-7.7,28.9-16.3,43.3-24.6c23.2-13.5,46.6-26.7,69.8-40.4c1.2-0.7,2.5-1.7,4.2-1C608.9,926.5,610,926.8,611,927.1z"/>
		<path class="st13" d="M2097.9,570.3c1.7,2.6-0.3,3.3-2.1,3.7c-1.6,0.3-3.3,0.3-5,0.3c-490,0-979.9,0-1469.9,0
			c-3.3,0-6.6-0.6-9.9-0.9c-0.6-0.5-1.6-0.8-1-2c315.6,0,631.2,0,946.8,0c178,0,355.9,0,533.9,0
			C2093.1,571.3,2095.7,572,2097.9,570.3z"/>
		<path class="st14" d="M610,571.4c0.3,0.7,0.7,1.3,1,2c-1.5,0.1-3.1,0-4.1,1.3c-5-0.3-8.5-4-12.8-5.9c-2.5-1.1-4.9-2.8-7.2-4.5
			c-1.5-1.1-2.9-2.2-4.6-2.9c-0.4-0.2-0.8-0.4-1.2-0.7c-2.1-1.4-4.4-2.4-6.7-3.4c-2.6-1.2-4.9-2.7-7.2-4.3
			c-9.2-6.6-19.3-11.7-29-17.4c-17-10-34.2-19.8-51.3-29.6c-1.3-0.7-2.6-1.5-4.1-1.7c-7.9-3.8-14.9-9-22.8-12.7
			c-0.2-0.2-0.4-0.3-0.7-0.3c-2.4-2.1-5.5-3.1-8-5.1c-5.9-3.8-12-7.2-18.1-10.6c-0.4-0.2-0.8-0.5-1.1-0.8c-12.3-7-24.5-14-36.7-21.1
			c-8.9-5-17.6-10.3-26.6-15.2c-4.7-2.8-9.3-5.8-14.2-8.1c-14.7-9-29.6-17.6-44.8-25.8c-9.5-5.1-18.6-11-28.1-16.2
			c-3.9-3.5-8.7-5.5-13-8.3c-12.1-7.1-23.9-14.8-36.7-20.7c-19.8-11-39.5-22.2-58.9-33.9c-3.8-2.5-7.8-4.8-11.8-6.9
			c-0.4-0.3-0.8-0.5-1.1-0.8c-29.3-17.9-59.4-34.5-89.1-51.8C48.8,253,26.5,240.6,4.7,227.3c-0.1-0.3-0.3-0.6-0.5-0.8
			c1.7,0.1,3.3,0.4,5,0.4c694,0,1387.9,0,2081.9,0c2.6,0,5.3-0.5,7.9,0.6c-5.5,0-11,0.1-16.5,0.1c-687.4,0-1374.8,0-2062.1,0
			c-1.6,0-3.3,0-4.9,0c-0.2,0.3-0.3,0.7-0.5,1c3.3,2.1,6.6,4.4,10,6.4c26.2,15,52.5,29.9,78.7,45.1c26.1,15.1,52.2,30.4,78.4,45.3
			c25.8,14.6,51.2,29.9,76.9,44.7c25.4,14.7,51,29.1,76.5,43.8c30.5,17.6,60.8,35.4,91.3,53c25.6,14.8,51.3,29.3,76.9,44.1
			c30.5,17.6,60.8,35.4,91.3,53C599.8,566.6,604.3,570.2,610,571.4z"/>
		<path class="st15" d="M4.7,227.3c10.2,5.6,20.4,11.2,30.5,16.9c36.8,21.1,73.6,42.3,110.3,63.6c5.3,3.1,11,5.5,15.5,9.7
			c-2.6,1-4-1.2-5.9-2.1c-47.2-27.2-94.4-54.5-141.6-81.7c-3.9-2.2-7.8-4.3-11.7-6.5C2.8,226.3,3.8,226.9,4.7,227.3z"/>
		<path class="st16" d="M607.8,926.2c-13.8,6.9-26.9,15.2-40.2,22.9c-25,14.3-49.8,28.8-74.8,43.1c-0.8,0.5-1.9,0.6-2.8,0.9
			c-0.5-1.1,0.5-1.4,1.1-1.9c37.2-21.4,74.3-42.8,111.5-64.3c1.6-0.9,3-2,4.6-3c0.8-0.2,1.5-0.4,1.8,0.7
			C608.5,925.1,608.2,925.6,607.8,926.2z"/>
		<path class="st17" d="M447,484.6c-11.9-6.7-23.8-13.2-35.6-20c-31.2-18-62.4-36.1-93.6-54.2c-3.3-1.9-6.6-3.8-9.9-5.8
			c0.5-0.7,1.2-0.7,1.9-0.7c7.4,2.9,13.8,7.6,20.7,11.4c7.9,4.4,15.8,8.8,23.5,13.6c4.7,2.7,9.4,5.4,14.1,8.2
			c9.4,5.2,18.5,10.8,28,15.9c12.3,7.2,24.7,14.1,36.9,21.4l0,0c4.9,2.7,9.9,5.3,14.4,8.8C447.4,483.8,447.3,484.2,447,484.6z"/>
		<path class="st18" d="M633.1,591.3c1.3,0.3,2.7,0.7,4,1c1.5-1.2,2.8-0.4,4,0.5c3,2.5,6.2,4.7,9.9,6c0.4,0.2,0.8,0.4,1.2,0.7
			c4,3,8.2,5.5,12.9,7.3c0.4,0.2,0.8,0.4,1.2,0.7c5,3.5,10.1,6.8,15.7,9.2c0.4,0.1,0.8,0.4,1.2,0.6c4,2.9,8.1,5.7,12.8,7.4
			c0.4,0.1,0.8,0.4,1.2,0.6c4.3,3,8.5,6,13.6,7.7c5.8,3.2,11.5,6.5,17.2,9.9c1.8,1.7,3.9,2.8,5.9,4.2c1.5,1,3.6,1.7,3.3,4.2
			c-6.3-1.3-11.3-5.5-16.7-8.5c-28.3-16.1-56.4-32.6-84.5-48.9C634.8,593.2,633.5,592.7,633.1,591.3z"/>
		<path class="st19" d="M296,1105c-5.2,5-11.9,7.8-18,11.3c-24.3,14.2-48.7,28.1-73.1,42.1c-0.6,0.3-1.2,0.4-1.9,0.7
			c-0.6-0.4-0.6-0.8-0.1-1.2c15.6-9.1,31.3-18.3,46.9-27.4c4.7-2.8,9.5-5.5,14.2-8.3c4.4-3.2,9.2-5.6,14-8.1l0,0
			c4.4-2.5,8.6-5.4,13.1-7.8C292.6,1105.6,294,1103.8,296,1105z"/>
		<path class="st20" d="M894.9,757.2c2.9-1.7,5.7-3.4,8.6-5c0.9-0.5,2-0.7,2.1-1.8c0.1-1.3-1-1.5-1.9-2
			c-27.3-15.7-54.6-31.4-81.9-47.1c-1.4-0.8-3.1-1.4-3.7-3.1c2.5-1.9,4.5,0,6.3,1.1c4.4,2.6,8.8,5.3,13.4,7.5
			c21.1,12.3,42.2,24.6,63.4,36.7c1.6,0.9,3.2,1.7,4.7,2.8c3.9,3.7,4,4.7-0.2,7.8c-2.6,1.9-5.4,3.7-8.7,4.2
			C896.1,758.3,895.4,758,894.9,757.2z"/>
		<path class="st21" d="M483.1,503.4c10.3,4.7,19.8,10.8,29.6,16.4c17.3,9.9,34.6,19.9,51.9,29.9c1.3,0.7,2.8,1.1,3.2,2.9
			c-1.6,0.8-2.6-0.6-3.8-1.2c-26.8-15.5-53.7-31-80.5-46.5C482,504.8,482.7,504,483.1,503.4z"/>
		<path class="st22" d="M737.1,651.2c-3.4-2.3-6.7-4.6-10.1-6.9c3.6-3,6,0.8,8.3,2.1c19.5,11.1,38.8,22.4,58.3,33.5
			c6,3.4,12.2,6.5,17.9,10.5c1.1,0.8,2.4,1.4,1.6,3.1c-0.7,0.4-1.5,0.3-2.1-0.2c-9.9-4.7-19-10.7-28.5-16.1
			C767.2,668.7,752.2,659.9,737.1,651.2z"/>
		<path class="st23" d="M155.1,315.5c2,0.7,4,1.4,5.9,2.1c0,0,0,0,0,0c4,2.3,8.1,4.6,12,7c19.7,11.3,39.3,22.7,59,34
			c0.6,0.4,0.7,0.9,0.4,1.5c-7.9-2.4-14.3-7.4-21.4-11.4c-17.8-10-35.4-20.4-53-30.6C156.9,317.3,155.6,316.8,155.1,315.5z"/>
		<path class="st24" d="M663.8,890.8c13.4-7.9,26.8-15.8,40.3-23.6c9.4-5.5,19-10.9,28.4-16.4c1.4-0.8,2.7-2,4.5-1.7
			c0.4,0.3,0.6,0.8,0.6,1.3c-0.2,1.3-1,2.2-2.1,2.9c-2.7,0.8-5.1,2-7.2,3.8c-0.4,0.3-0.8,0.5-1.2,0.7c-2.5,0.6-4.5,1.9-6.1,3.9
			c-5.4,3.2-10.8,6.6-16.3,9.7c-2.9,0.5-5.4,2-7.7,3.8c-0.4,0.3-0.8,0.5-1.2,0.7c-5,1.7-9.1,5.1-13.6,7.6c-4,1.6-7.5,4.2-11.3,6.3
			c-2,1.1-3.9,2.7-6.4,2.1C664.2,891.7,663.9,891.3,663.8,890.8z"/>
		<path class="st25" d="M97,1219.9c-1.3,2.6-4.2,3.1-6.4,4.4c-15.7,9.2-31.5,18.3-47.3,27.5c-1,0.6-2.1,0.8-3.2,1.2
			c0-0.4,0-0.7-0.1-1.1c17-10,34-19.9,51.1-29.9C92.9,1220.8,94.5,1218.9,97,1219.9z"/>
		<path class="st26" d="M97,1219.9c-2,0.7-3.9,1.4-5.9,2.1c3-4,7.8-5.4,11.9-7.9c11.1-6.7,22.4-13,33.6-19.5
			c1.4-0.8,2.7-1.9,4.6-1.6c-1.5,4.2-6.2,3.9-8.9,6.5c-1.1,1.1-2.8,1.5-4.2,2.4C117.7,1207.9,107.4,1213.9,97,1219.9z"/>
		<path class="st27" d="M203,1157.8c0,0.4,0.1,0.8,0.1,1.2c-16.4,10.1-33.2,19.5-50.1,28.9c-0.7,0.6-1.4,0.6-2.1,0
			c9.8-6.8,20.5-12.1,30.8-18.2C188.7,1165.6,195.9,1161.8,203,1157.8z"/>
		<path class="st28" d="M296,1105c-6.6,1.8-11.4,7.1-17.9,9.1c0.4-0.5,0.7-1.3,1.2-1.5c14.9-8.6,29.7-17.2,44.6-25.7
			c0.5,0.4,0.6,0.8,0.3,1.4C314.8,1093.8,305.4,1099.4,296,1105z"/>
		<path class="st29" d="M324.1,1088.2c-0.1-0.5-0.2-0.9-0.3-1.4c12.2-7,24.4-14,36.5-21c1.4-0.8,2.8-1.8,4.5-1.8
			c0.3,0.2,0.4,0.4,0.3,0.7c-0.1,0.2-0.2,0.4-0.3,0.4C351.4,1072.8,338.2,1081.2,324.1,1088.2z"/>
		<path class="st30" d="M232.4,360c-0.1-0.5-0.3-1-0.4-1.5c9.1,3.3,16.7,9.3,25.2,13.7c4.1,2.2,7.9,4.8,11.9,7.2
			c-0.7,0.7-1.4,0.6-2.2,0.1C255.4,373,243.9,366.5,232.4,360z"/>
		<path class="st31" d="M833,793.2c10.2-7,21.4-12.4,31.9-18.9c3-1.8,6.1-3.3,9.2-5c0.3,0.3,0.5,0.8,0.6,1.2
			c-0.4,2.4-2.9,2.8-4.2,4.3c-0.3,0.3-0.7,0.5-1.1,0.7c-2.5,0.8-4.8,2.2-6.9,3.8c-5,2.7-10,5.3-14.4,9c-1.4,1-2.9,1.7-4.4,2.4
			c-3.5,0.2-5.7,4.1-9.5,3.2C833.6,793.9,833.2,793.6,833,793.2z"/>
		<path class="st32" d="M310.1,404.5c-0.7,0-1.4,0.1-2.2,0.1c-9.4-5.5-18.8-10.9-28.1-16.4c-0.7-0.4-1.1-1.2-1.6-1.8
			c1.7-1.1,2.7,0.3,3.8,1.2c9.4,5.3,18.7,10.6,28.1,15.9c0.4,0.2,0.5,0.4,0.4,0.6C310.3,404.3,310.2,404.5,310.1,404.5z"/>
		<path class="st33" d="M787.1,820.3c2.2-3.3,6-4.4,9.2-6.3c8.1-4.8,16.3-9.3,24.5-14c0.5,0.3,0.7,0.7,0.8,1.2
			c-0.1,2.8-2.4,3.8-4.3,4.9c-3.8,2.3-7.5,4.5-11.4,6.7c-5.1,1.3-9.2,4.5-13.5,7.3c-0.4,0.3-0.8,0.5-1.3,0.6
			C789.8,820.9,788.3,821.7,787.1,820.3z"/>
		<path class="st34" d="M365,1065c0-0.3,0-0.7-0.1-1c10-5.7,19.6-12.1,30.1-16.9c0.3,0.2,0.4,0.5,0.3,0.7c-0.1,0.3-0.2,0.4-0.2,0.4
			C385.3,1054.1,375.6,1060.4,365,1065z"/>
		<path class="st35" d="M491.1,991.1c-0.4,0.6-0.7,1.3-1.1,1.9c0,0,0,0,0,0c-1.5,1.3-3.3,2-5.1,2.9c-6.9,4.1-13.9,8.2-20.8,12.3
			c-1.3,0.5-2.3,2.2-4.1,0.9c6.5-5.5,14.2-8.8,21.4-13.1C484.5,994.2,487.3,991.6,491.1,991.1z"/>
		<path class="st36" d="M608.9,924.6c-0.6-0.2-1.2-0.5-1.8-0.7c1.7-3,4.9-3.7,7.6-5.2c6.2-3.5,12.4-7,18.5-10.5
			c1.2-0.7,2.3-1.4,3.7-1.1c-6.9,5.7-15.1,9.2-22.8,13.7c-1.6,0.9-3.1,1.8-4.4,3.2C609.5,924.1,609.2,924.4,608.9,924.6z"/>
		<path class="st37" d="M737.2,850.3c0-0.4-0.1-0.7-0.1-1.1c9.6-5.4,18.8-11.6,28.9-16.1c0.4,0.4,0.5,0.8,0.5,1.4
			c-1.2,3.2-4.3,3.9-6.8,5.3c-5.9,3.5-11.8,7.2-18,10.2C740.2,850.6,738.8,851.7,737.2,850.3z"/>
		<path class="st38" d="M587,563.4c6.6,3.8,13.2,7.5,19.9,11.3c0.7,0.5,1.3,1,2,1.5c0,0.5-0.1,0.9-0.1,1.4c-9-4.4-17.8-9.1-26-14.9
			c0.1-0.4,0.4-0.7,0.8-0.9C585,561.8,586,562.6,587,563.4z"/>
		<path class="st27" d="M460,1009.1c1.4-0.3,2.7-0.6,4.1-0.9c-6.3,4.8-13.6,8.2-20.4,12.2c-1.6,0.9-3.1,1.8-4.7,2.7
			c-0.7,0.6-1.4,0.6-2.1-0.1C444.1,1017.5,452.4,1013.9,460,1009.1z"/>
		<path class="st39" d="M395.1,1048.1c0-0.4,0-0.7-0.1-1.1c7.5-4.7,14.9-9.4,23-13.1c0.5,0.4,0.5,0.8,0.1,1.3
			C410.6,1039.8,403.2,1044.5,395.1,1048.1z"/>
		<path class="st40" d="M483.1,503.4c0.1,0.5,0.3,1,0.4,1.5c-8.5-3.3-16.2-8-23.5-13.4c3.6-0.3,6,2.4,8.8,3.9
			C473.7,497.9,478.3,500.7,483.1,503.4z"/>
		<path class="st41" d="M151,1187.9c0.7,0,1.4,0,2.1,0c-8.1,5.1-16,10.4-25,13.9c3.6-4,9.4-5,13.1-8.9
			C144.4,1191.3,147.7,1189.6,151,1187.9z"/>
		<path class="st42" d="M810.9,693.4c0.7,0,1.3,0,2,0c1.7-0.7,3.4-0.2,4.7,0.6c6.1,3.8,12.4,7.3,18.6,10.9c0.7,0.4,1.2,1.1,1.4,1.9
			c0,0.5-0.1,1-0.5,1.4c-6.8-2.5-12.1-7.6-19-9.9C815.8,696.3,812.7,695.8,810.9,693.4z"/>
		<path class="st43" d="M418.1,1035.2c0-0.4-0.1-0.9-0.1-1.3c5.9-4.3,12.4-7.6,18.9-10.9c0.7,0,1.4,0,2.1,0.1
			C432.3,1027.5,425.3,1031.5,418.1,1035.2z"/>
		<path class="st44" d="M874.1,770.4c0-0.4,0-0.7,0-1.1c7-4,13.9-8.1,20.9-12.1c0.7,0,1.4,0,2,0c0.8,3.2-2.8,3-3.8,4.8
			c-0.4,0.3-0.8,0.5-1.2,0.7c-3.2,1.2-5.9,3.3-8.9,4.8c-2,1-4,1.9-5.8,3.1c-0.4,0.2-0.8,0.4-1.3,0.5
			C875.2,771.2,874.6,771,874.1,770.4z"/>
		<path class="st45" d="M650.9,900.1c-1.6,0.7-3.2,1.4-4.8,2.1c-0.8,0.6-1.5,0.6-2.2-0.1c6.7-3.7,12.8-8.3,19.9-11.2
			c0.2,0.2,0.3,0.4,0.5,0.6c-1.9,4.8-6.7,5.7-10.6,7.7C652.9,899.6,651.8,899.5,650.9,900.1z"/>
		<path class="st38" d="M564,551.4c1.3,0.4,2.5,0.8,3.8,1.2c2.4,1.3,4.7,2.6,7.1,4c2.3,1.3,5,2.2,7.1,3.9l0,0
			c0.7,0.4,1.4,0.6,1.3,1.6c-0.2,0.2-0.3,0.4-0.5,0.6C576.2,559.5,569.7,556.2,564,551.4z"/>
		<path class="st46" d="M766.1,834.3c-0.1-0.4-0.1-0.9-0.2-1.3c4.4-3,8.8-6,13.8-7.9c0.7-0.4,1.4-0.5,2.2-0.1
			c0.1,0.2,0.2,0.3,0.2,0.4C780.8,828.6,769.8,834.7,766.1,834.3z"/>
		<path class="st47" d="M281.9,387.6c-1.3-0.4-2.5-0.8-3.8-1.2c-3.7-2.3-7.9-3.9-11.2-6.9c0.7,0,1.5-0.1,2.2-0.1
			C273.3,382.3,278.5,383.5,281.9,387.6z"/>
		<path class="st48" d="M447,484.6c0-0.3,0-0.7,0.1-1c2.1-0.6,3.4,1,5,1.9c2.1,2.3,6.2,2.2,7.3,5.7
			C454.6,490.2,451.1,486.8,447,484.6z"/>
		<path class="st28" d="M278.1,1114.1c-4.3,3.4-8.9,6.1-14,8.1C267.8,1117.7,272.9,1115.7,278.1,1114.1z"/>
		<path class="st49" d="M821.1,801.4c-0.1-0.5-0.2-0.9-0.3-1.4c4-2.3,8.1-4.6,12.1-6.8c0.4,0.1,0.9,0.2,1.3,0.2c0.4,1.1,0,2-0.6,2.9
			c-2.4,2.4-5.7,3.3-8.4,5.2C824,802.3,822.4,802.6,821.1,801.4z"/>
		<path class="st50" d="M781.9,825.2c-0.7,0-1.4,0-2.1-0.1c2-2.3,5-3,7.3-4.8c1.3-0.4,2.6-0.8,3.9-1.2
			C790.3,823,786.6,825.4,781.9,825.2z"/>
		<path class="st36" d="M643.8,902.1c0.7,0,1.5,0.1,2.2,0.1c-2,1.6-4,3.5-6.9,3.2C640.2,903.5,641.8,902.5,643.8,902.1z"/>
		<path class="st51" d="M619.1,581.2c-1.7-0.9-3.5-1.9-5.2-2.8c0.7-2.7,2.5-1.4,4-1.2c0.4,0.1,0.7,0.1,1.1,0.2
			c2.1,0.9,4.3,0.4,6.4,0.4c488.7,0,977.3,0,1466,0.1c2.1,0,4.3-0.5,6.4,0.5c-1.1,2.3-3.2,2-5.2,2c-5,0-10,0-15,0
			c-482.9,0-965.8,0-1448.6,0c-1.7,0-3.3,0-5,0C622.7,582.1,620.8,580.9,619.1,581.2z"/>
		<path class="st52" d="M2097.9,922.1c-494.1,0-988.3,0-1482.4,0c0.5-1.1,1.9-1.7,3.5-2c1.6-0.6,3.2-1.5,5-1c1.9,1.5,4.2,1,6.3,1
			c486.4,0,972.9,0,1459.3,0.1C2092.4,920.2,2095.7,918.9,2097.9,922.1z"/>
		<path class="st3" d="M2097.9,578.4c-490.2,0-980.3,0-1470.5,0c-2.8,0-5.7,0.8-8.3-0.9c4,0,8-0.1,12-0.1c487.2,0,974.5,0,1461.7,0
			c2,0,4,0.1,6,0.2C2098.5,577.8,2098.2,578.1,2097.9,578.4z"/>
		<path class="st53" d="M624,919.2c-1.6,0.8-3.3,1.1-5,1c9.8-5.7,19.6-11.4,29.4-17.2c1.5-0.9,3-1.9,4.6-2.9
			c2.1-3.6,6.1-4.6,9.3-6.5c6.4-3.7,12.7-7.6,19.3-10.9c4.8-2.8,9.7-5.7,14.4-8.6l0,0c2.7-1.2,5.4-2.4,7.7-4.5
			c5.5-3.1,11-6.3,16.6-9.4c1.9-1.9,4.8-2.3,6.8-4.1l0,0c2.8-1,5.2-2.8,7.9-4.2c0.8-0.6,1.5-1.1,2.3-1.7c10.2-4.3,19.2-10.8,29-16
			c5.4-2.7,10.8-5.6,15.7-9.2c3-2,6.9-2.7,9.1-6c0,0,0,0,0,0c4.9-2.2,9.3-5.3,14-8c5.4-3.3,10.7-6.5,16.1-9.8
			c4.4-1.2,7.8-4.4,11.9-6.2c3.4-1.8,6.8-3.8,10.1-5.9c1.3-0.7,2.5-1.5,3.8-2.2c5.6-2.5,10.4-6.2,15.8-9c1.8-1.8,4.5-2.2,6.4-3.9
			l0,0c2.2-1.6,4.9-2.3,7-4l0,0c1.9-1.3,4.1-2,6-3.3c3.5-1.6,6.7-3.7,10-5.8l0,0c3.8-1.9,7.4-4.1,11-6.4c1.3-0.8,2.5-1.5,4-0.7
			c2.4,1,1.3,1.6-0.1,2.4c-9.6,5.6-19.1,11.4-28.7,16.9c-21.1,12.2-42.2,24.4-63.3,36.5c-32.8,18.8-65.6,37.6-98.3,56.5
			c-23.6,13.6-46.9,27.6-70.6,41C638.7,911.5,632,916.6,624,919.2z"/>
		<path class="st54" d="M619.1,581.2c1.5-1.2,3.2-0.7,4.9-0.8c25.4,14.8,50.6,29.6,76.1,44.3c22.5,13,45.3,25.7,67.8,38.6
			c19.2,11.1,38.3,22.5,57.5,33.6c26.3,15.2,52.7,30.2,78.9,45.4c1,0.6,5.5,0.4,2.6,4c-0.6,0.5-1.4,0.4-2.1,0.3
			c-21.2-11.9-42.1-24.4-63.3-36.4c-1.6-0.9-3.1-1.9-4.5-3.2c-8.1-4.6-16.1-9.2-24.2-13.8c-13-7.7-26-15.4-39-23
			c-14.1-8.2-28.2-16.2-42.3-24.4c-1.4-0.8-2.7-1.9-4.6-1.6c-5.7-3.3-11.3-6.6-17-9.9c-4.6-2.8-9-5.9-14-8l0,0
			c-4.5-3-9.1-5.7-13.9-8.2l0,0c-5.7-3.2-11.2-6.8-17.1-9.9l0,0c-4.6-2.9-9.4-5.2-13.9-8.1l0,0c-3.6-2-7-4.4-10.9-6.1
			c-0.8-1-1.7-1.8-3.1-2C631.6,587.8,624.8,585.4,619.1,581.2z"/>
		<path class="st55" d="M905,746.3c0.6,0,1.3,0.1,1.9,0.1c3.6,2.6,3.5,5.2,0,7.7c-3.9,0.5-6.7,3.5-10,5.1c-1.6,0.8-3,2.1-5,1.9
			c1.2-2,3.6-2.3,5-3.9c2.6-1.4,5.2-2.8,7.9-4.1c4.1-2.1,4.1-3,0.2-5.9c-0.4-0.2-0.5-0.4-0.4-0.6C904.8,746.4,904.9,746.3,905,746.3
			z"/>
		<path class="st56" d="M682,883c-9.7,5.7-19.3,11.4-29,17.1c-0.7,0-1.4,0-2.1,0c3.9-3.7,9.1-5.4,13.4-8.6
			c5.9-3.2,11.8-6.4,17.7-9.6c0.3,0.2,0.4,0.5,0.3,0.7C682.2,882.9,682.1,883,682,883z"/>
		<path class="st3" d="M618,577.2c-1.4,0.2-2.9,0-4,1.2c-1.2-0.9-1.7-1.8,0.3-2C615.6,576.3,616.9,576.4,618,577.2z"/>
		<path class="st16" d="M484.9,995.9c1.3-1.6,3.1-2.5,5.1-2.9C488.9,995,487.1,995.9,484.9,995.9z"/>
		<path class="st57" d="M310.1,404.5c0-0.3-0.1-0.6,0-1c7.8,2.3,14,7.4,20.9,11.3c8.2,4.7,16.7,8.8,24.4,14.4
			c-0.3,0.6-0.8,0.7-1.3,0.2C339.4,421.1,324.7,412.8,310.1,404.5z"/>
		<path class="st58" d="M433,474.5c-10.7-4.5-20.1-11.3-30.3-16.8c-2.3-1.2-4.5-2.8-6.7-4.2c-0.6-0.4-0.5-0.7,0-1.1
			c11.7,6.6,23.3,13.3,34.9,20C431.8,472.9,432.3,473.8,433,474.5z"/>
		<path class="st59" d="M396.1,452.5c0,0.4,0,0.7,0,1.1c-9.7-4.8-18.9-10.4-28.1-16.1c0.4-0.5,0.8-0.6,1.3-0.2
			C378.2,442.4,387.1,447.4,396.1,452.5z"/>
		<path class="st60" d="M452,485.5c-1.7-0.6-3.3-1.3-5-1.9c-4.5-3.3-10-5-14.1-9C440,477,446.2,480.9,452,485.5z"/>
		<path class="st61" d="M369.3,437.3c-0.4,0.1-0.9,0.1-1.3,0.2c-4.6-2.7-9.3-5.4-13.9-8c0.4-0.1,0.8-0.1,1.3-0.2
			C360.4,431.3,364.9,434.3,369.3,437.3z"/>
		<path class="st15" d="M173.1,324.5c-4.5-1.6-8.5-3.8-12-7C165.6,318.9,169.7,321.2,173.1,324.5z"/>
		<path class="st62" d="M582,560.5c-2.7-0.7-5.1-1.8-7.1-3.9C577.8,556.9,580.3,558,582,560.5z"/>
		<path class="st62" d="M583.3,562.1c-0.4-0.5-0.9-1.1-1.3-1.6c2.2,0.2,3.9,1,5.1,2.9C585.8,563,584.5,562.5,583.3,562.1z"/>
		<path class="st4" d="M665,608.4c6.4,2.1,11.9,5.8,17.1,9.9C675.8,616,670.3,612.4,665,608.4z"/>
		<path class="st63" d="M695.9,626.4c5.5,1.2,10,4.3,14,8C704.9,632.5,700.4,629.6,695.9,626.4z"/>
		<path class="st4" d="M682,618.3c5.3,1.6,9.9,4.3,13.9,8.2C690.9,624.4,686.3,621.7,682,618.3z"/>
		<path class="st4" d="M651,600.3c5.2,1.8,9.9,4.4,13.9,8.1C659.8,606.6,655.2,603.9,651,600.3z"/>
		<path class="st4" d="M640.2,594.3c4.3,0.8,7.8,3,10.9,6.1C646.9,599.2,643.4,597,640.2,594.3z"/>
		<path class="st64" d="M905,746.3c0,0.3,0,0.6,0,0.9c-11.1-5.2-21.3-11.9-32-18c-12.1-6.9-24-14-36-21c0-0.3,0-0.6,0-1
			c15.9,9.1,31.9,18.2,47.8,27.3C891.6,738.3,898.3,742.3,905,746.3z"/>
		<path class="st65" d="M682,883c0-0.4,0-0.7,0-1.1c4.6-2.8,8.9-6.1,14.1-7.8C692.1,878.2,686.8,880.2,682,883z"/>
		<path class="st65" d="M703.6,869.6c-1.8,2.8-4.3,4.3-7.7,4.5C698.1,871.9,700.8,870.6,703.6,869.6z"/>
		<path class="st66" d="M734.9,851.9c-2.2,2.2-4.6,4.1-7.9,4.2C729.2,854,731.7,852.3,734.9,851.9z"/>
		<path class="st66" d="M727,856.1c-1.5,2.7-4.3,3.2-6.8,4.1C721.8,857.8,724.4,857,727,856.1z"/>
		<path class="st67" d="M863.1,778.3c-5.3,3.2-10.1,7.4-16.3,8.8c4.6-3.7,9.9-6.2,15-9C862.3,777.6,862.8,777.7,863.1,778.3z"/>
		<path class="st68" d="M843,789.3c-2.8,3-6.1,5-10.1,5.9c0.4-0.6,0.9-1.2,1.3-1.8C837.4,792.5,839.6,789.5,843,789.3z"/>
		<path class="st69" d="M863.1,778.3c-0.4-0.1-0.9-0.2-1.3-0.2c2.1-1.9,4.4-3.4,7.2-3.9C867.8,776.7,865.1,776.9,863.1,778.3z"/>
		<path class="st69" d="M876,770.2c-1.7,2.5-4.1,3.6-7,4c1.1-2,3.5-2.3,5.1-3.8C874.7,770.3,875.3,770.3,876,770.2z"/>
		<path class="st50" d="M805,811.2c-4.1,3.6-8.6,6.6-14,8C795.2,815.7,799.9,813,805,811.2z"/>
		<path class="st55" d="M892,761.1c-2.6,3.2-6.2,4.7-9.9,6.2c-0.3-0.2-0.4-0.4-0.3-0.7c0.1-0.2,0.2-0.3,0.3-0.3
			C885.3,764.5,888.2,762,892,761.1z"/>
		<path class="st69" d="M882,766.3c0,0.3,0,0.7,0,1c-1.8,1.4-3.7,2.7-6.1,2.9C877.4,768,879.8,767.3,882,766.3z"/>
	</g>
</g>
</svg>
