<?xml version="1.0" encoding="utf-8"?>
<!-- Generator: Adobe Illustrator 24.3.0, SVG Export Plug-In . SVG Version: 6.00 Build 0)  -->
<svg version="1.1" id="Layer_1" xmlns="http://www.w3.org/2000/svg" xmlns:xlink="http://www.w3.org/1999/xlink" x="0px" y="0px"
	 viewBox="0 0 2100 1500" style="enable-background:new 0 0 2100 1500;" xml:space="preserve">
<style type="text/css">
	.st0{fill:#FBD117;}
	.st1{fill:#CC1127;}
	.st2{fill:#122F9B;}
	.st3{fill:#F3DF0A;}
	.st4{fill:#FACE16;}
	.st5{fill:#FBD52F;}
	.st6{fill:#D22B3F;}
	.st7{fill:#1B4E9E;}
	.st8{fill:#D21023;}
	.st9{fill:#013892;}
	.st10{fill:#043A96;}
</style>
<g>
	<g>
		<path class="st0" d="M2099.9,52.6c0,0.7,0,1.3,0,2c-1.1,2.2-1,4.5-1,6.8c0,226.1,0,452.3,0,678.4c0,1.8,0.4,3.6,0,5.5
			c-1.1,1.6-2.7,1.7-4.4,1.7c-1.7,0-3.3,0-5,0c-693.5,0-1387,0-2080.5,0c-2.9,0-6,0.7-8.8-1c0-9.7,0-19.3,0-29c1.1-1.6,1.7-4,4.4-3
			c2.2,0.8,2.6,2.8,2.6,5c0.1,6.5-0.1,13-0.1,19.4C6.8,519.1,6.8,299.9,7,80.6c0.1,5.1,0.1,10.2,0.1,15.3c0,2.2,0.4,4.8-2.1,5.6
			c-3.1,1-3.6-2.1-4.8-3.9c0-15,0-30,0-45c1.1-0.9,2.4-1,3.8-1c1.7,0,3.3,0,5,0c694.1,0,1388.2,0,2082.3,0
			C2094.1,51.6,2097.1,50.8,2099.9,52.6z"/>
		<path class="st1" d="M2099.9,1444.4c0,0.7,0,1.3,0,2c-1.1,0.9-2.4,1-3.8,1c-1.8,0-3.7,0-5.5,0c-693.8,0-1387.5,0-2081.3,0
			c-3.1,0-6.3,0.9-9.3-1c0-0.7,0-1.3,0-2c1.4-2.8,1-5.9,1-8.8c0-107.6,0-215.2,0-322.8c0-2.5-0.5-5,0.6-7.4c1.4-1.5,3.2-1.7,5-1.7
			c1.8,0,3.7,0,5.5,0c691.9,0,1383.8,0,2075.7,0c3.4,0,7.1-1,10.1,1.5c1.4,2.3,0.8,4.9,0.8,7.3c0,107.7,0,215.4,0,323
			C2098.9,1438.6,2098.5,1441.6,2099.9,1444.4z"/>
		<path class="st2" d="M0.1,754c0-1.3,0-2.7,0-4c1.1-2.2,2.9-3.1,5.3-3c1.5,0.1,3,0,4.5,0c693.4,0,1386.8,0,2080.3,0
			c3.4,0,7.6-1.5,9.8,2.9c0,1.3,0,2.7,0,4c-0.5,0.4-1,0.8-1.5,1.1c-0.9,0.3-1.9,0.5-2.8,0.7c-2.8,0.6-5.6,0.4-8.5,0.4
			c-691.4,0-1382.8,0-2074.2,0c-2.8,0-5.7,0.1-8.5-0.4c-0.9-0.2-1.9-0.4-2.8-0.7C1.1,754.8,0.6,754.4,0.1,754z"/>
		<path class="st3" d="M2099.9,750c-2.1-1-4.3-0.6-6.4-0.6c-695.7,0-1391.3,0-2087,0c-2.1,0-4.3-0.4-6.4,0.6c0-1.3,0-2.7,0-4
			c2.6-1.4,5.5-1,8.3-1c512.2,0,1024.4,0,1536.6,0c184.6,0,369.2,0,553.8,0c0.6,0,0.7,0.7,1.1,1
			C2099.9,747.3,2099.9,748.7,2099.9,750z"/>
		<path class="st4" d="M0.1,97.5c1.3,1,2.6,2,3.9,3c1.7-0.9,1-2.4,1.1-3.6c0.1-7,0-14,0.1-21c0-1.1-0.1-2.7,1.3-2.9
			c1.7-0.2,2.2,1.4,2.4,2.6c0.3,2.1,0.3,4.3,0.3,6.5c0,215.7,0,431.4,0,647.1c0,1.5,0,3,0,4.5c0,2.2-0.2,4.3,2.2,5.7
			c1.2,0.7,2.1,2.2,1.2,3.4c-1.6,2-4,1-6.1,0.9c-1.7-0.1-2-1.3-1.7-2.9c1.1-7.1,0.3-14.3,0.5-21.4c0-1.6,0.6-3.7-1.2-4.5
			c-1.6-0.7-2.4,1.5-3.8,2C0.1,510.5,0.1,304,0.1,97.5z"/>
		<path class="st5" d="M2099.9,52.6c-699.9,0-1399.9,0-2099.8,0c0.4-0.6-1-2.1,1-2c1.2,0.1,2.3,0,3.5,0c696.9,0,1393.9,0,2090.8,0.1
			C2096.7,50.7,2100,48.2,2099.9,52.6z"/>
		<path class="st6" d="M0.1,1446.4c699.9,0,1399.9,0,2099.8,0c-0.4,0.6,1,2.1-1,2c-1.2-0.1-2.3,0-3.5,0
			c-696.9,0-1393.9,0-2090.8-0.1C3.3,1448.3,0,1450.8,0.1,1446.4z"/>
		<path class="st7" d="M0.1,754c0.3,0,0.7,0,1,0c1.9,0.9,2.4,2.6,2.4,4.6c0,2,0,4,0,6c0,106.1,0,212.2,0,318.2c0,2.7,0.4,5.3,0.3,8
			c-0.2,4.6,2.3,5.7,6.1,5.7c2.3,0,4.7,0,7,0c690.7,0,1381.5,0,2072.2,0c2.7,0,5.3,0,8,0.2c1.1,0,1.9,0.4,2.7,1.1c0,0.7,0,1.3,0,2
			c-0.7,0.7-1.6,1.2-2.6,1.4c-2.5,0.2-5,0.1-7.5,0.1c-693.2,0-1386.4,0-2079.6,0c-3.4,0-7,1.1-10.1-1.4C0.1,984.5,0.1,869.2,0.1,754
			z"/>
		<path class="st6" d="M0.1,1099.7c7.8,0,15.7,0,23.5,0c689.1,0,1378.2,0,2067.4,0c2.3,0,4.6,0.3,6.9,0.4c-0.1,0.7-0.5,1.2-1.1,1.6
			c-3.3,1-6.6,0.5-9.9,0.5c-593.7,0-1187.4,0-1781.1,0c-96,0-192,0-287.9,0c-4,0-8,0.3-11.9,1.4c-1.7-0.1-2.9,0.9-3.9,2.1
			c0,109.9,0,219.9,0,329.8c0,3.1,0.7,6.4-2,8.9C0.1,1329.5,0.1,1214.6,0.1,1099.7z"/>
		<path class="st5" d="M2099.9,746c-0.4-0.3-0.7-0.7-1.1-1c-1.1-2.2-0.9-4.5-0.9-6.9c0-225.2,0-450.4,0-675.6c0-2.8-0.4-5.7,2-7.9
			C2099.9,285,2099.9,515.5,2099.9,746z"/>
		<path class="st7" d="M2099.9,1097.7c-0.7,0-1.3,0-2,0c-1.9-1.2-1.5-3.2-1.5-5c0-110.7,0-221.5,0-332.2c0-2.5-0.4-5.1,2.5-6.6
			c0.3,0,0.7,0,1,0C2099.9,868.6,2099.9,983.1,2099.9,1097.7z"/>
		<path class="st6" d="M2097.8,1100.7c0-0.2,0-0.4,0.1-0.6c0.7-0.1,1.3-0.3,2-0.4c0,114.9,0,229.8,0,344.7c-2.6-2.4-2-5.5-2-8.4
			c0-88.1,0-176.3,0-264.4c0-22,0-43.9,0-65.9c-1.2-1.1-1.3-2.4-0.8-3.8C2097.3,1101.5,2097.5,1101.1,2097.8,1100.7z"/>
		<path class="st4" d="M1050.5,55.6c339.1,0,678.2,0,1017.3,0c1.7,0,3.3-0.1,5,0c1.3,0.1,3.5-0.6,3.4,1.7c0,1.8-2,2-3.5,2.2
			c-1.5,0.2-3,0.1-4.5,0.1c-678.9,0-1357.8,0-2036.6,0c-2.8,0-7.6,1.2-7.6-2.3c0-3.3,4.7-1.6,7.1-1.6
			C371,55.6,710.7,55.6,1050.5,55.6z"/>
		<path class="st4" d="M8.3,54.4c1.4,1,5.1-1.5,4.8,1.8C12.9,59,9,57.9,6.8,58.7c-1.3,0.5-3.1-1.3-3-2.7C4,53.1,6.5,54.6,8.3,54.4z"
			/>
		<path class="st4" d="M13.7,66.5c0,2.2,0.2,3.3-0.1,4.4c-0.2,1-1,1.9-2.1,1.7c-1.2-0.2-1.3-1.4-1.1-2.4c0.3-1.5,0.7-2.8,0.3-4.4
			c-0.3-1.3-1.5-3.4,0.8-3.5c1.8-0.1,2.5,1.8,2.2,3.7C13.7,66.6,13.6,67,13.7,66.5z"/>
		<path class="st4" d="M21.6,742.6c-1.5,2-2.9,1.1-4.9,1.3C18.3,741.7,19.6,741.9,21.6,742.6z"/>
		<path class="st8" d="M2097.9,1101.7c1.6,1.3-0.2,2.7,0,4c-698.6,0-1397.2,0-2095.8,0c0.2-1.3-1.6-2.7,0-4c1.7-0.9,3.6-0.5,5.4-0.5
			c695,0,1390,0,2085,0C2094.3,1101.2,2096.2,1100.8,2097.9,1101.7z"/>
		<path class="st9" d="M3.1,754c2.3,0,4.7,0,7,0c693.3,0,1386.5,0,2079.8,0c2.3,0,4.7,0,7,0c1,1.7,0.5,3.6,0.5,5.4
			c0,109.6,0,219.1,0,328.7c0,7.2-0.4,7.6-7.5,7.8c-2.3,0.1-4.7,0-7,0c-688.6,0-1377.1,0-2065.7,0c-3.3,0-6.7,0-10-0.2
			c-3.2-0.2-4.9-1.7-4.6-5.1c0.1-1,0-2,0-3c0-109.2,0-218.5,0-327.7C2.6,758,2.1,755.9,3.1,754z"/>
		<path class="st10" d="M3.1,754c0,110.7,0,221.5,0,332.2c0,7.5,0,7.5,7.3,7.5c693.1,0,1386.2,0,2079.3,0c7.3,0,7.3,0,7.3-7.5
			c0-110.7,0-221.5,0-332.2c0.7,0,1.3,0,2,0c-1,1.8-1,3.8-1,5.8c0,112.6,0,225.2,0,337.9c-2.2,1.6-4.8,1-7.3,1
			c-145,0-289.9,0-434.9,0c-548.2,0-1096.4,0-1644.6,0c-10,0-9.1,0.9-9.1-9.2c0-109.2,0-218.5,0-327.7c0-2.6,0.4-5.3-0.9-7.8
			C1.8,754,2.4,754,3.1,754z"/>
		<path class="st1" d="M2097.9,1101.7c-698.6,0-1397.2,0-2095.8,0c0.9-1.4,2.4-1,3.6-1c3.5,0,7,0,10.5,0c692.2,0,1384.4,0,2076.6,0
			c1.7,0,3.3,0,5,0C2097.9,1101.1,2097.9,1101.4,2097.9,1101.7z"/>
	</g>
</g>
</svg>
