<?xml version="1.0" encoding="utf-8"?>
<!-- Generator: Adobe Illustrator 15.1.0, SVG Export Plug-In . SVG Version: 6.00 Build 0)  -->
<!DOCTYPE svg PUBLIC "-//W3C//DTD SVG 1.1//EN" "http://www.w3.org/Graphics/SVG/1.1/DTD/svg11.dtd">
<svg version="1.1" id="Layer_1" xmlns="http://www.w3.org/2000/svg" xmlns:xlink="http://www.w3.org/1999/xlink" x="0px" y="0px"
	 width="500px" height="500px" viewBox="0 0 500 500" enable-background="new 0 0 500 500" xml:space="preserve">
<path fill="#633194" d="M0,253.812l247.119,247.119C111.422,499.163,1.768,389.508,0,253.812z M306.508,494.67L6.261,194.424
	C31.72,83.076,131.379,0,250.444,0c83.229,0,156.964,40.603,202.514,103.071l-34.683,30.602
	c-36.948-52.987-98.337-87.665-167.831-87.665c-88.482,0-163.831,56.202-192.312,134.854l261.936,261.937
	c63.613-23.035,112.534-76.731,128.92-143.236H340.414v-49.076h114.509l0,0h46.008l0,0
	C500.931,369.552,417.855,469.209,306.508,494.67z"/>
</svg>
