<svg xmlns="http://www.w3.org/2000/svg" xmlns:xlink="http://www.w3.org/1999/xlink" height="800" width="1200" viewBox="-4.83 -8.439875 41.86 50.63925"><g transform="translate(-.9 -.1405)"><defs><path id="a" d="M.9 0h32.2v33.9H.9z"/></defs><clipPath id="b"><use height="100%" width="100%" overflow="visible" xlink:href="#a"/></clipPath><path d="M11.1 27.3c0 1.1-.9 2.1-2.1 2.1-1.2 0-2.1-.9-2.1-2.1v-9c0-1.1.9-2.1 2.1-2.1 1.2 0 2.1.9 2.1 2.1zm6 2.4c0 1.1-.9 2.1-2.1 2.1-1.2 0-2-.9-2-2.1V16c0-1.1.9-2.1 2.1-2.1 1.2 0 2.1.9 2.1 2.1v13.7zM5 25.3c0 1.1-.9 2.1-2.1 2.1-1.2 0-2.1-.9-2.1-2.1v-4.9c0-1.1.9-2.1 2.1-2.1 1.2 0 2.1 1 2.1 2.1zm18.1 6.6c0 1.1-.9 2.1-2.1 2.1-1.1 0-2-1-2-2.1V13.7c0-1.1.9-2.1 2.1-2.1 1.1 0 2.1.9 2.1 2.1v18.2z" fill="#231F20" clip-path="url(#b)"/><path d="M29.7 31c-.4 0-.7-.1-1.1-.2l-2.5-.8c-.4-.1-.7-.6-.5-1 .1-.4.6-.7 1-.5l2.6.8c.5.2 1.1.1 1.6-.3.5-.3.7-.9.7-1.4V10.9c0-.8-.5-1.5-1.2-1.7L5.8 1.8c-.5-.2-1.1-.1-1.6.2-.4.4-.7.9-.7 1.5V15c0 .5-.4.8-.8.8-.5 0-.8-.4-.8-.8V3.5c0-1.1.5-2.1 1.4-2.7.9-.7 2-.8 3-.5l24.4 7.4c1.4.4 2.4 1.8 2.4 3.3v16.7c0 1.1-.5 2.1-1.4 2.8-.6.2-1.3.5-2 .5" fill="#231F20" clip-path="url(#b)"/></g></svg>