<svg id="Syneos_Health_Logo" data-name="Syneos Health Logo" xmlns="http://www.w3.org/2000/svg" viewBox="0 0 471.66 212.35"><defs><style>.cls-1{fill:#ff671f;}.cls-2{fill:#ff9e1b;}.cls-3{fill:#eb3300;}</style></defs><title>Syneos Health_rgb_r</title><path class="cls-1" d="M478.08,137.13a29.12,29.12,0,0,1-42.43-25.91V81.29a30.78,30.78,0,0,0-14.14-25.91,29.12,29.12,0,0,1,42.43,25.91v29.94a30.62,30.62,0,0,0,9,21.77A30.22,30.22,0,0,0,478.08,137.13Z" transform="translate(-52.17 -52.17)"/><path class="cls-2" d="M424.82,110.4h-20a29.12,29.12,0,1,1,13.3-55,30,30,0,0,0-5.12,4.14A30.78,30.78,0,0,0,424.82,110.4Z" transform="translate(-52.17 -52.17)"/><path class="cls-3" d="M523.83,111.22a29.14,29.14,0,0,1-42.43,25.91,30.22,30.22,0,0,0,5.13-4.14,30.8,30.8,0,0,0-11.77-50.88h20A29.15,29.15,0,0,1,523.83,111.22Z" transform="translate(-52.17 -52.17)"/><path class="cls-3" d="M235.59,217h3.34v21.4h28.42V217h3.34v46.8h-3.34V241.79H238.93v22.06h-3.34V217Z" transform="translate(-52.17 -52.17)"/><path class="cls-3" d="M282.77,249.14a13.09,13.09,0,0,0,12.7,12.37,13.51,13.51,0,0,0,10.7-5.62l2,1.94a16,16,0,0,1-12.7,6.69c-8.36,0-15.71-7.35-15.71-16.72s7.36-16.72,15.38-16.72,14.71,6.69,14.71,16.72v1.34H282.77Zm0-3h24.07c-0.33-7-5.35-12-11.7-12S283.11,239.78,282.77,246.13Z" transform="translate(-52.17 -52.17)"/><path class="cls-3" d="M339.61,243.79c0-5.55-3.88-9.69-9-9.69a12.55,12.55,0,0,0-9.36,4.68l-2-2s4.15-5.68,11.37-5.68c6.89,0,12,5.55,12,12.7v20.06h-3V258.5a14.07,14.07,0,0,1-11.7,6c-6.35,0-10.7-4.35-10.7-9,0-5,3.68-8.76,9.69-9.69Zm0,6v-3l-12,2c-5,.8-7.36,3.34-7.36,6.69,0,3,3,6,7.69,6A11.43,11.43,0,0,0,339.61,249.81Z" transform="translate(-52.17 -52.17)"/><path class="cls-3" d="M356.86,263.85h-3V217h3v46.8Z" transform="translate(-52.17 -52.17)"/><path class="cls-3" d="M371.43,221.06h2.67v10.7h7.36v3h-7.36v21.06c0,3.68,2,5.68,5,5.68a10.88,10.88,0,0,0,4.35-1v3a10.88,10.88,0,0,1-4.35,1c-5,0-8-3-8-8.69V234.76h-6.35v-3h4.35a2.38,2.38,0,0,0,2.34-2.67v-8Z" transform="translate(-52.17 -52.17)"/><path class="cls-3" d="M395,237.44a12.26,12.26,0,0,1,11-6.35c7.36,0,13,5.68,13,13.71v19.06h-3V244.79c0-6.35-4.35-10.7-10-10.7-6,0-11,5-11,11.7v18.05h-3V217h3v20.39Z" transform="translate(-52.17 -52.17)"/><path class="cls-3" d="M55,141.93c0-12.65,10.92-23.57,28.17-23.57,17.82,0,26.44,10.92,26.44,10.92L99.31,140.21s-5.75-6.9-14.95-6.9c-6.9,0-10.92,4-10.92,8.62,0,14.94,39.66,6.32,39.66,35.06,0,14.37-10.92,25.29-30.47,25.29-20.12,0-30.47-13.22-30.47-13.22l10.35-10.35a25.71,25.71,0,0,0,19,8.62c8.62,0,13.22-4.6,13.22-10.35C94.71,162.05,55,170.68,55,141.93Z" transform="translate(-52.17 -52.17)"/><path class="cls-3" d="M137.59,200l-21.84-55.76h16.1l13.22,37.36L157,148a5.59,5.59,0,0,1,5.27-3.72h12.14L152,204c-5.17,13.8-12.07,20.69-21.84,20.69a27.1,27.1,0,0,1-9.77-1.73v-13.8a14,14,0,0,0,5.75,1.15,10.1,10.1,0,0,0,9.77-6.32Z" transform="translate(-52.17 -52.17)"/><path class="cls-3" d="M197.72,151.13s5.75-8,16.1-8c12.65,0,21.84,9.2,21.84,24.72v32.77h-9.93a5.59,5.59,0,0,1-5.59-5.59V169.53c0-6.9-4.6-11.5-10.92-11.5-6.9,0-11.5,4.6-11.5,13.22v29.32H182.2V144.23h15.52v6.9Z" transform="translate(-52.17 -52.17)"/><path class="cls-3" d="M260.54,177.57c1.15,5.75,6.32,10.92,14.95,10.92A19.5,19.5,0,0,0,286.62,185a5.54,5.54,0,0,1,7.46,1.25l4.39,5.65a33.69,33.69,0,0,1-24.14,9.77c-18.9,0-33.37-17-29.16-35.91A29,29,0,0,1,274,143.08c16,0.13,27.91,12.16,27.91,28.16a28.77,28.77,0,0,1-.57,6.32H260.54Zm0-10.92h25.87a12.51,12.51,0,0,0-12.65-10.35C266.86,156.3,262.26,160.9,260.54,166.65Z" transform="translate(-52.17 -52.17)"/><path class="cls-3" d="M339.71,201.72c-16.1,0-29.89-13.8-29.89-29.32s13.8-29.32,29.89-29.32,29.89,13.79,29.89,29.32S355.8,201.72,339.71,201.72Zm0-14.37c7.47,0,13.8-6.32,13.8-14.95s-6.32-14.95-13.8-14.95-13.8,6.32-13.8,14.95S332.24,187.35,339.71,187.35Z" transform="translate(-52.17 -52.17)"/><path class="cls-3" d="M409.87,160.9s-3.45-4.6-9.2-4.6c-4.6,0-6.9,2.3-6.9,4.6,0,8,25.87,4,25.87,23,0,9.77-8,17.82-22.42,17.82-16.1,0-23-10.35-23-10.35l8.62-8.62s4.6,6.32,12.07,6.32c5.17,0,7.47-2.3,7.47-5.17,0-8.62-25.87-4.37-25.87-23,0-8.62,9.2-17.82,21.84-17.82,13.22,0,19.54,8.62,19.54,8.62Z" transform="translate(-52.17 -52.17)"/><path class="cls-3" d="M431.43,188.55a4.57,4.57,0,1,1-4.69,4.56A4.53,4.53,0,0,1,431.43,188.55Zm0,8.16a3.59,3.59,0,1,0-3.44-3.6A3.47,3.47,0,0,0,431.43,196.71Zm-1.82-6.17h1.93c1.28,0,2,.4,2,1.52a1.28,1.28,0,0,1-1.34,1.37l1.37,2.24H432.5l-1.25-2.19h-0.64v2.19h-1v-5.12Zm1,2.14h0.9c0.57,0,1-.09,1-0.71s-0.59-.64-1.05-0.64h-0.85v1.34Z" transform="translate(-52.17 -52.17)"/></svg>