<?xml version="1.0" encoding="utf-8"?>
<!-- Generator: Adobe Illustrator 24.3.0, SVG Export Plug-In . SVG Version: 6.00 Build 0)  -->
<svg version="1.1" id="Layer_1" xmlns="http://www.w3.org/2000/svg" xmlns:xlink="http://www.w3.org/1999/xlink" x="0px" y="0px"
	 viewBox="0 0 2100 1500" style="enable-background:new 0 0 2100 1500;" xml:space="preserve">
<style type="text/css">
	.st0{fill:#FEFEFE;}
	.st1{fill:#002664;}
	.st2{fill:#CB0000;}
	.st3{fill:#CE1111;}
	.st4{fill:#032060;}
	.st5{fill:#11346E;}
	.st6{fill:#BFC8D7;}
	.st7{fill:#B3BED0;}
	.st8{fill:#F6D7D7;}
	.st9{fill:#9DA9C1;}
	.st10{fill:#EBA2A2;}
	.st11{fill:#5D7099;}
	.st12{fill:#EDA7A7;}
	.st13{fill:#011B5C;}
	.st14{fill:#031D5D;}
	.st15{fill:#062060;}
	.st16{fill:#021C5D;}
	.st17{fill:#021D5D;}
</style>
<g>
	<g>
		<path class="st0" d="M2100,816c0,21.3,0,42.6,0,64c-2.3,2-5.1,1.4-7.7,1.4c-48.1,0-96.3,0-144.4,0c-120.6,0-241.2,0-361.8,0
			c-1.8,0-3.8-0.4-5.5,0.2c-2.1,0.8-0.5,1.6,0.4,2.2c19.3,8.3,37.9,17.9,56.6,27.4c32.2,16.4,64.7,32.1,97,48.4
			c37.7,19.1,75.7,37.7,113.4,56.9c11.7,5.9,23.7,11.3,35.3,17.7c14.1,8.2,28.9,15,43.5,22.1c8.8,4.3,17.3,9.2,26.4,12.7
			c48,24.2,96.2,48.1,144.3,72.3c0.9,0.5,1.7,1,2.5,1.7c0,29.3,0,58.6,0,88c-2.4,1-4.2-0.5-6.1-1.4c-39.7-20.3-79.8-39.9-119.7-59.9
			c-39.4-19.7-78.9-39.5-118.4-59.2c-40.2-20.1-80.4-40.3-120.6-60.3c-40.7-20.3-81.3-40.6-122-60.9
			c-41.8-20.9-83.9-41.5-125.5-62.8c-9-4.6-18.5-8.5-27.1-13.8c-14.2-7.9-29.4-14.1-43.5-22.3c-12.3-7.1-25-9.2-39.1-9
			c-47.5,0.5-94.9,0.2-142.4,0.2c-2.1,0-4.3-0.3-7.6,0.8c13,6.5,24.9,12.8,37.2,18.4c2.1,0.5,4,1.6,5.9,2.6
			c244.2,122.1,488.4,244,732.5,366.2c2.4,1.2,6.1,1.4,6.2,5.4c-58.3,0-116.7,0-175,0c-23.8-11.9-47.7-23.7-71.5-35.6
			c-51.6-26-103.4-51.7-155-77.6c-30.4-15.2-60.8-30.2-91.2-45.5c-51.8-26-103.7-51.8-155.5-77.8c-31.4-15.7-62.8-31.5-94.3-47
			c-11.8-5.8-23.5-11.8-35.3-17.7c-5.6-2.8-5.9-2.6-5.9,3.8c0,71.1,0,142.2,0,213.3c0,25.8,0,51.6,0,77.4c0,2.3,0.5,4.7-1.3,6.7
			c-29,0-58,0-87,0c-2-2.5-1.4-5.4-1.4-8.2c0-63.1,0-126.3,0-189.4c0-84.1,0-168.2,0-252.4c0-10.2,0-10.3,10.3-10.3
			c314.8,0,629.6,0,944.5,0C2094.3,814.6,2097.4,813.8,2100,816z"/>
		<path class="st0" d="M265,1274.8c-58.3,0-116.7,0-175,0c-0.1-3.6,3.2-3.9,5.3-5c38.6-19.4,77.2-38.6,115.8-57.9
			c205.4-102.6,410.8-205.3,616.2-308c2.4-1.2,4.7-2.5,7.3-3.3c12.3-5.5,24-12,36.3-17.8c-1.2-2-2.9-1.4-4.2-1.4
			c-53.6,0-107.3,0-160.9,0c-3.6,0-6.8,0.9-10,2.5c-17.9,8.8-35.6,17.9-53.6,26.7c-1.1,0.5-1.9,1.3-2.9,1.9
			c-5.5,3.9-11.7,6.3-17.7,9.2C594,935,566.8,949.5,539.1,963c-40.3,19.6-80.2,40-120.2,60c-41.9,20.9-83.7,41.8-125.5,62.8
			c-36.9,18.5-73.9,36.9-110.8,55.3c-40.9,20.5-81.9,40.9-122.8,61.4c-18,9-36.1,17.9-54.1,27.1c-1.8,0.9-3.5,2.1-5.6,1.2
			c0-29.3,0-58.6,0-88c1.9-1.8,4.3-2.5,6.5-3.6c37-18.7,74.1-37.3,111.2-55.7c9.7-4.8,19.2-10,29-14.6c11.1-4.6,21.5-10.5,32.3-15.5
			c12.9-6.1,25.5-13,38.5-18.9c43.5-21.4,86.8-43.3,130.1-64.9c56.2-28,112.4-56.1,168.5-84.3c1.7-0.8,3.8-1.1,4.8-3.3
			c-2.3-1.1-4.7-0.6-6.9-0.6c-168.5,0-337,0-505.4-0.1c-2.9,0-6.1,0.8-8.7-1.3c0-21.3,0-42.6,0-64c1.3-1.2,3-1.4,4.7-1.4
			c2,0,4,0,6,0c313.5,0,627,0,940.5,0c12.3,0,12.3,0,12.3,12.3c0,146.3,0,292.5,0,438.8c0,3.1,0.8,6.4-1.4,9.2c-28.7,0-57.3,0-86,0
			c-2.1-2.6-1.4-5.7-1.4-8.7c0-95.7,0-191.4,0-287c0-1.7,0-3.3,0-5c-0.1-1.6-0.5-3-2.5-3c-0.5,0.2-1,0.4-1.5,0.6
			c-7.1,2.8-13.8,6.5-20.6,10c-26.7,13.9-54,26.6-80.9,40.3c-40.2,20.5-80.7,40.4-121,60.6c-40.8,20.4-81.4,41-122.3,61.1
			c-3.1,1.5-6.2,3.3-9.2,5c-6.9,3.8-13.9,7.2-20.9,10.7c-50.6,25.2-101.1,50.4-151.6,75.7C317.7,1248.4,291.2,1261.3,265,1274.8z"/>
		<path class="st0" d="M0,684c0-21.3,0-42.6,0-64c2.6-2.1,5.8-1.3,8.7-1.3c142.3,0,284.6,0,426.9,0c26.5,0,53,0,79.5,0
			c1.9,0,4,0.4,6.3-0.7c-1.4-1.9-3.5-2.5-5.3-3.4c-142.7-71.4-285.5-142.7-428.3-214C60.1,386.7,32.4,372.9,4.7,359
			c-1.6-0.8-3.3-1.6-4.7-2.9c0-29,0-58,0-87c2.6-0.9,4.5,0.9,6.5,1.9c108,54,216.1,108,324.1,162c116.7,58.3,233.4,116.6,350,174.9
			c3.1,1.6,6.4,2.9,9.1,5.2c6.3,4.1,13.1,5.7,20.8,5.6c51.2-0.2,102.5-0.1,153.7-0.1c2.1,0,4.2,0.4,6.3-0.6c-0.8-2.1-2.7-2.2-4-3.1
			c-12.9-7.2-26.3-13.6-39.5-20.2c-41.5-20.8-83-41.6-124.6-62.3c-34.4-17.1-68.8-34.3-103.2-51.5c-47.5-23.8-94.9-47.6-142.4-71.2
			c-31.4-15.7-62.8-31.4-94.2-47.1c-50.6-25.3-101.2-50.7-151.9-75.9c-30.1-15-60-30.4-90.3-45c-8.2-4-16.3-8.3-24.5-12.4
			c-1.7-0.8-3.8-1.4-3.8-4c57.7,0,115.3,0,173,0c51.7,25.9,103.4,51.7,155.1,77.5C568.9,377.2,717.8,451.6,866.7,526
			c7,3.5,7,3.5,7-4.2c0-96.1,0-192.2,0-288.3c0-2.8-0.8-5.7,1.3-8.2c29,0,58,0,87,0c2,2.5,1.4,5.4,1.4,8.2c0,62.8,0,125.6,0,188.4
			c0,84.5,0,168.9,0,253.4c0,10.2,0,10.3-10.3,10.3c-314.8,0-629.6,0-944.5,0C5.7,685.4,2.6,686.2,0,684z"/>
		<path class="st0" d="M1835,225.2c57.7,0,115.3,0,173,0c-0.1,3.1-2.7,3.4-4.7,4.4c-30.6,15.7-61.7,30.7-92.4,46.3
			c-30.9,15.7-61.9,31-92.8,46.5c-49.9,24.9-99.7,49.8-149.6,74.7c-53.3,26.6-106.6,53.2-159.9,79.9c-33.8,17-67.6,33.8-101.4,50.7
			c-46,22.9-91.9,46.2-138,68.8c-0.8,0.5-1.5,1-2.2,1.5c-0.3,0.3-0.7,0.5-1.1,0.7c-1.1,0.4-2.3,0.9-3.3,1.6
			c-0.3,0.2-0.7,0.4-1.1,0.6c-0.9,0.4-1.9,0.7-2.7,1.3c-0.3,0.2-0.7,0.4-1.1,0.6c-1.1,0.4-2.2,0.9-3.2,1.6c-0.4,0.2-0.7,0.4-1.1,0.6
			c-1.3,0.4-2.4,1.2-3.5,1.9c-0.4,0.3-0.9,0.5-1.3,0.6c-6.5,3.5-13.3,6.4-20.1,10.2c2.1,1.6,4,1.1,5.7,1.1c53,0,106,0,158.9,0.1
			c5.2,0,9.7-1.6,14.2-3.9c36.6-18.8,73.5-36.9,110.3-55.2c45.1-22.6,90.2-45.3,135.4-67.5c1.3-0.7,2.7-1.4,3.9-2.2
			c1.5-0.8,3.1-1.3,4.6-2.2c1.4-0.6,2.9-1.2,4.2-2.1c1.4-0.6,2.8-1.2,4.1-2c1.4-0.6,2.8-1.3,4.1-2.1c1.5-0.6,2.9-1.4,4.3-2.2
			c19.8-9.3,39.2-19.5,58.8-29.2c0.9-0.4,1.6-1.2,2.4-1.8c2-1.5,4.3-2.5,6.5-3.6c115.5-57.7,231-115.5,346.6-173.2
			c2.3-1.1,4.4-3.2,7.4-2.3c0,29,0,58,0,87c-1.4,1.3-3,2-4.7,2.9c-170.3,85.1-340.6,170.2-511,255.4c-1.9,1-4,1.6-5.8,3.6
			c2.5,1.2,5,0.7,7.4,0.7c152.8,0,305.6,0,458.4,0c16.3,0,32.7,0,49,0c2.3,0,4.7-0.4,6.7,1.3c0,21.3,0,42.6,0,64
			c-1.3,1.2-3,1.4-4.7,1.4c-2,0-4,0-6,0c-313.5,0-627,0-940.5,0c-12.3,0-12.3,0-12.3-12.3c0-146.3,0-292.5,0-438.8
			c0-3.1-0.8-6.4,1.4-9.2c29,0,58,0,87,0c2.1,2.5,1.3,5.4,1.3,8.2c0,95.3,0,190.6,0,285.8c0,10.2,0,10.2,9.2,5.6
			c197.6-98.8,395.2-197.5,592.8-296.3C1830.5,227.5,1833,226.8,1835,225.2z"/>
		<path class="st1" d="M2100,1142.8c-3.2,0.1-5.6-2-8.2-3.3c-45.6-22.7-91.2-45.5-136.7-68.2c-0.7-0.4-1.4-0.9-2.1-1.3
			c-0.3-0.5-0.3-0.9,0.1-1.3c2.6-1.1,4.5,0.9,6.4,1.9c22.1,11.1,44,22.6,66.3,33.3c23.1,11.1,45.7,23.3,64.9,32.4
			c-29-14.9-62.3-31.1-95.3-47.7c-12.5-6.2-24.7-13.1-37.4-18.8c-23.2-10.4-45.6-22.5-68.3-34c-30.9-15.7-62-31.1-93-46.7
			c-6.1-3.1-12.3-5.8-18.2-9.2c-12.6-5.5-24.7-12.1-36.9-18.3c-20.7-10.5-41.6-20.4-62.3-31c-14.8-7.5-29.5-15.2-44.4-22.4
			c-13.4-6.3-26.6-13.1-39.7-19.8c-1.3-0.7-3.6-1.2-2.9-3.4c0.7-2.3,2.7-1.2,4.3-1.2c2.3,0.1,4.7,0.1,7,0.1c162.5,0,324.9,0,487.4,0
			c-167.5,0-335.1,0-503.7,0c16.1,9.3,31.7,16.6,47.2,24.1c33.9,16.9,67.5,34.1,101.5,50.8c13.1,6.4,26,13.3,39.1,19.7
			c1.4,0.7,2.7,1.2,4.1,1.6c13.5,7.4,27.5,13.8,41.2,20.8c20,10.3,40.1,20.4,60.3,30.1c1.7,0.8,4.4,1,4.4,3.9
			c-0.7,0.5-1.4,0.4-2.1-0.1c-36.3-18.1-72.6-36.1-108.9-54.3c-62.2-31.1-124.3-62.1-186.5-93.2c-1.6-0.8-3.1-2.1-5.1-1.9
			c-1.3-1.4-4.7-1.4-4.2-3.5c0.7-2.9,3.6-1.1,5.6-1.1c2.2,0,4.3,0,6.5,0c167.3,0,334.6,0,501.8,0c2.6,0,5.4-0.7,7.8,1
			C2100,968.9,2100,1055.9,2100,1142.8z"/>
		<path class="st1" d="M147.1,1069.9c-25.6,12.9-51.2,25.7-76.7,38.6c-21.4,10.7-42.9,21.5-64.4,32.1c-1.9,0.9-3.6,2.5-6,2.2
			c0-87,0-173.9,0-260.9c2.2-1.7,4.8-1,7.3-1c167.8,0,335.5,0,503.3,0c2,0,4,0,6,0c1.9-0.1,4.6-1.6,5.2,1.1c0.5,2.2-2.5,2.5-4.1,3.4
			c-20.2,10.2-40.5,20.3-60.7,30.4c-79.7,39.8-159.3,79.7-239,119.4c-0.8,0.2-1.6,0.3-2.4,0.1c-1-3.3,2.2-3.3,3.6-4
			c8.1-3.8,16-8,24-11.9c20.3-9.9,40.3-20.4,60.5-30.4c5.8-2.9,11.6-5.7,17.4-8.6c18.6-8.9,36.6-18.7,55.2-27.7
			c30-14.5,59.6-30,89.5-44.7c15.5-7.6,31.1-14.9,46.1-24.2c-167.5,0-335.1,0-502.6,0c163.3,0,326.7,0,490,0c2,0,4,0.1,6-0.3
			c1.3-0.3,2.4,0,2.8,1.3c0.5,1.5-0.7,2.1-1.7,2.7c-3,1.9-6.2,3.3-9.3,4.8c-10.6,5.2-21,10.7-31.7,15.7
			c-33.8,16.8-67.5,34.1-101.5,50.7c-14.3,7-28.3,14.6-42.7,21.4c-25.8,12.6-51.3,25.9-77.1,38.6c-26.6,13-52.4,27.4-79.2,40.1
			c-29,13.7-57.4,28.5-86.2,42.5c-21.9,10.7-43.7,21.8-65.5,32.8c-2.6,1.3-5.5,2.1-8.7,4.5c33.7-17.3,66.9-33.5,100-50.1
			c11.9-5.9,23.7-12.1,35.6-17.9c2.1-1,4-3.1,6.9-2.2C147.4,1069,147.4,1069.5,147.1,1069.9z"/>
		<path class="st1" d="M2100,357.2c0,86.3,0,172.6,0,258.9c-3.4,1-6.9,0.3-10.4,0.3c-162.5,0-324.9,0-487.4,0
			c-2.2,0-4.3,0.1-6.5-0.1c-1.4-0.2-3.4,0-3.6-1.9c-0.2-1.5,1.5-2.1,2.6-2.6c6.4-3.1,12.8-6.3,19.2-9.5
			c44.9-22.4,89.8-44.9,134.7-67.3c53.1-26.5,106.2-53.1,159.2-79.6c54.1-27,108.2-54.1,162.4-81.1c8.1-4,16.1-8.1,24.2-12.2
			c-30.9,15.5-61.8,30.9-92.6,46.3c-53.9,26.9-107.8,53.9-161.8,80.8c-28.5,14.3-57,28.6-85.6,42.8c-52.9,26.3-105.7,53-158.8,79.1
			c-3.6,1.8-6.5,5.6-11.2,4.5c-0.9-0.6-0.8-1.3,0-1.9c1.4-0.9,2.9-1.6,4.4-2.3c168.4-84.2,336.8-168.3,505.2-252.4
			C2095.9,358.1,2097.6,356.1,2100,357.2z"/>
		<path class="st1" d="M0,616.1c0-86.3,0-172.6,0-258.9c1.9-1.2,3.2,0.4,4.5,1.1c169.4,84.6,338.8,169.3,508.1,254
			c1.3,0.6,3.9,0.4,3.1,3.3c-2.1,1-3.9,0-5.7-1c-27.2-14.4-54.9-27.6-82.3-41.4c-25.2-12.7-50.5-25.3-75.7-38c-26-13-52-26-78-39
			c-28.5-14.3-57-28.6-85.6-42.8c-54-26.8-107.8-54-161.8-80.7c-6.8-3.4-13.7-6.8-20.5-10.3c25.8,13.1,51.7,25.9,77.6,38.8
			c32.8,16.5,65.7,32.9,98.5,49.3c53.1,26.5,106.2,53,159.2,79.6c27.8,13.9,55.6,27.9,83.4,41.7c26.3,13.1,52.6,26.5,79,39.3
			c0.6,0.3,1.2,0.6,1.8,0.9c1,0.5,2.4,1.1,2.2,2.4c-0.2,1.7-1.8,1.7-3.1,1.9c-2.3,0.3-4.7,0.2-7,0.2c-162.5,0-324.9,0-487.4,0
			C6.9,616.4,3.4,617.1,0,616.1z"/>
		<path class="st2" d="M2100,226.2c0,0.7,0,1.3,0,2c-1.2,9.3-1.1,18.6-0.3,27.8c0.9,9.6-2.8,14.1-11.3,18.2
			c-43.6,21.4-87,43.3-130.5,65c-49.7,24.8-99.4,49.7-149.2,74.5c-20.9,10.4-41.8,20.7-62.5,31.2c-8.3,4.2-16.5,8.7-24.8,12.9
			c-0.4,0.3-0.8,0.5-1.2,0.8c-1.3,0.5-2.6,0.9-3.7,1.8c-0.4,0.3-0.8,0.5-1.2,0.6c-3.8,1.4-7.4,3.2-10.8,5.4
			c-0.4,0.3-0.8,0.5-1.3,0.6c-21,9.9-41.7,20.5-62.4,31c-1.1,0.5-1.9,1.3-2.8,2.1c-20.2,10.2-40.7,19.9-60.8,30.3
			c-25.7,13.3-52,25.7-77.7,38.9c-26.1,13.4-52.5,26-78.7,39.2c-3.8,1.9-7.8,3.6-11.4,5.9c-5.3,3.3-11.1,4.7-17.5,4.6
			c-48.1-0.2-96.3-0.1-144.4-0.1c-5.2,0-10.3-0.4-15.5,0.3c-1.3,0.2-2.4,0.2-3-1.1c-0.6-1.4,0.5-2.2,1.6-2.6
			c5.4-2.1,10.2-5.4,15.6-7.3c8.5-3.4,16.4-8,24.6-12c42.6-20.9,84.9-42.3,127.4-63.5c42.6-21.3,85.2-42.6,127.8-63.9
			c38.1-19,76.2-38.1,114.4-57.1c42.5-21.2,84.8-42.5,127.3-63.7c38.1-19,76.3-38.1,114.4-57.1c41.2-20.6,82.6-41,123.7-61.9
			c4.2-2.2,8.5-3.3,13.4-3.3c25.3,0.1,50.7,0.1,76,0.1C2096.8,225.8,2098.5,225.3,2100,226.2z"/>
		<path class="st2" d="M2100,1271.8c0,0.7,0,1.3,0,2c-1.5,1-3.2,0.5-4.9,0.5c-24.2,0-48.3-0.1-72.5,0.1c-6.5,0.1-12.4-1.1-18.2-4.1
			c-28.3-14.7-57-28.7-85.6-43c-26-13.1-52.1-25.9-78.1-39c-51.2-25.7-102.4-51.2-153.6-76.9c-50.3-25.2-100.7-50.3-151-75.5
			c-55.2-27.6-110.5-55.2-165.7-82.8c-33.6-16.8-67.2-33.7-101-50.3c-1.5-0.7-3-1.4-4.7-1.5c-10.9-5.4-21.8-11.1-32.8-16.3
			c-1.3-0.6-3.3-1-2.9-2.9c0.3-1.4,2.2-1.2,3.5-1.2c1.3,0,2.7,0,4,0c52,0,103.9,0,155.9-0.1c5,0,9.5,0.9,13.8,3.3
			c6.6,3.7,13.7,6.7,20.4,10.2c7.4,5.5,16,8.7,24.1,12.9c28.5,14.7,57.2,29.1,86,43.3c43.1,21.3,86,42.9,128.9,64.4
			c37.8,18.9,75.5,37.7,113.2,56.6c47.1,23.6,94.2,47.1,141.4,70.6c40.6,20.2,81.1,40.6,121.7,60.9c17.7,8.8,35.3,17.8,53.1,26.6
			c3.5,1.7,4.4,3.8,4.4,7.3c-0.2,10-0.1,20,0,30C2099.5,1268.5,2099,1270.2,2100,1271.8z"/>
		<path class="st2" d="M0,1273.8c0-0.7,0-1.3,0-2c1.2-9.6,0.9-19.3,0.3-28.8c-0.5-8.3,2.1-12.5,9.7-16.2
			c41-20.3,81.8-40.7,122.8-61.1c37.6-18.8,75.2-37.6,112.8-56.4c39.4-19.7,78.7-39.4,118.1-59.1c41.3-20.6,82.7-41.3,124-61.9
			c41.6-20.8,83.4-41.5,124.9-62.5c18.4-9.3,36.7-18.8,55.2-27.8c1.9-0.9,3.8-2,5.4-3.5c7.6-3.8,15.2-7.3,22.7-11.2
			c3.1-1.6,6.2-2.2,9.6-2.2c53.3,0,106.5,0,159.8,0c0.8,0,1.7,0,2.5,0c1.2,0,2.7,0,3.1,1.2c0.5,1.6-1.2,2.2-2.4,2.7
			c-9.9,4.6-19.5,9.7-29.3,14.4c-1.3,0.6-2.5,1.7-3.9,2.1c-7.1,1.5-13.1,5.6-19.4,8.8c-46.1,22.8-92.1,45.9-138.1,68.9
			c-35.3,17.7-70.5,35.4-105.8,53c-46,23-92.1,46-138.1,68.9c-37.4,18.6-74.7,37.4-112.1,56.1c-43.2,21.6-86.3,43.1-129.5,64.6
			c-33.8,16.8-67.5,33.7-101.3,50.6c-2.2,1.1-4.5,2-7.1,2c-27.2-0.1-54.3,0-81.5,0C1.5,1274.2,0.7,1274.4,0,1273.8z"/>
		<path class="st2" d="M0,228.2c0-0.7,0-1.3,0-2c1.5-1,3.2-0.5,4.9-0.5c25.2,0,50.3,0.1,75.5-0.1c5,0,9.5,1.1,13.9,3.2
			c23.9,11.8,47.5,24.1,71.4,35.9c42.7,21,85.3,42.5,127.8,63.8c38,19,75.9,38,113.9,57c42.1,21.1,84.3,42.1,126.5,63.2
			c37.4,18.7,74.7,37.4,112.1,56.1c43.9,22,87.9,43.9,131.8,65.9c29,14.5,58.2,28.7,87.2,43.5c1,0.9,2.4,0.9,3.3,1.9
			c0.4,1.2,0.2,2.1-1,2.6c-0.5,0.2-1,0.2-1.6,0.2c-2.6-0.5-5.3-0.4-8-0.4c-49.8,0-99.6-0.1-149.4,0.1c-5.9,0-11.1-1.1-16.2-3.9
			c-21-11.6-42.7-21.7-64.2-32.5c-47.6-24-95.3-47.7-142.9-71.5c-34.7-17.3-69.4-34.6-104-52c-43.3-21.7-86.6-43.4-130-65
			c-38.7-19.3-77.4-38.7-116.1-58c-43.3-21.6-86.7-43.2-130-64.9c-3.3-1.6-4.6-3.4-4.5-7.2c0.3-10.2,0.1-20.3,0.1-30.5
			C0.5,231.5,1,229.8,0,228.2z"/>
		<path class="st3" d="M1138,225.2c-0.1,1.8-0.2,3.6-0.2,5.5c0,149.2,0,298.4-0.1,447.7c0,5,1.5,6,6.2,6
			c317.1-0.1,634.1-0.1,951.2-0.1c1.7,0,3.3-0.2,5-0.2c0,0.7,0,1.3,0,2c-0.5,0.4-1.1,0.8-1.7,1.1c-2.4,0.8-4.9,0.6-7.4,0.6
			c-314.8,0-629.6,0-944.4,0c-11.3,0-12.1-0.8-12.1-12.3c0-145.7,0-291.5,0-437.2c0-11.2,0.5-10.3-10.4-10.3c-49.5,0-99,0-148.5,0
			c-1.7,0-3.3,0.1-5,0c-3.3-0.1-4.9,1.4-4.8,4.8c0,2.2,0,4.3,0,6.5c0,144.7,0,289.5,0,434.2c0,14.1-0.1,14.3-14.1,14.3
			c-313.5,0-626.9,0-940.4,0c-3.2,0-6.3,0.4-9.5-0.6c-0.6-0.3-1.2-0.6-1.7-1.1c0-0.7,0-1.3,0-2c1.8,0.1,3.6,0.2,5.5,0.2
			c316.7,0,633.5,0,950.2,0c6.6,0,6.6,0,6.6-6.4c0-148.9,0-297.8,0-446.7c0-2-0.2-4-0.2-6C1020.7,225.2,1079.3,225.2,1138,225.2z"/>
		<path class="st3" d="M962,1274.8c0.1-1.8,0.2-3.6,0.2-5.5c0-149.2,0-298.4,0.1-447.7c0-5-1.5-6-6.2-6
			C639.1,815.7,322,815.7,5,815.7c-1.7,0-3.3,0.2-5,0.2c0-0.7,0-1.3,0-2c0.5-0.4,1.1-0.8,1.7-1.1c2.6-0.8,5.3-0.6,7.9-0.6
			c314.3,0,628.6,0,943,0c12.2,0,13,0.8,13,13.1c0,145.6,0,291.2,0,436.8c0,9.9,0,9.9,9.7,9.9c49.7,0,99.3,0,149,0
			c1.5,0,3-0.1,4.5,0c4.1,0.3,5.7-1.7,5.5-5.7c-0.1-2,0-4,0-6c0-144.4,0-288.9,0-433.3c0-2.5-0.1-5,0.1-7.5c0.4-5.4,2-6.9,7.5-7.3
			c2-0.1,4-0.1,6-0.1c313.7,0,627.3,0,941,0c3.1,0,6.3-0.4,9.4,0.6c0.6,0.3,1.2,0.6,1.7,1.1c0,0.7,0,1.3,0,2
			c-1.8-0.1-3.6-0.2-5.5-0.2c-316.7,0-633.5,0-950.2,0c-6.6,0-6.6,0-6.6,6.4c0,148.9,0,297.8,0,446.7c0,2,0.2,4,0.2,6
			C1079.3,1274.8,1020.7,1274.8,962,1274.8z"/>
		<path class="st4" d="M0,616.1c2.3-1.4,4.8-1,7.3-1c164.8,0,329.7,0,494.5,0c1.8,0,3.5,0,5.3,0c0.1-0.4,0.2-0.7,0.3-1.1
			C338.6,529.6,169.8,445.3,1.1,361c0.3-0.6,0.5-1.2,0.8-1.7c1.7,0.8,3.4,1.6,5.1,2.5C174.4,445.3,341.7,529,509,612.6
			c2.2,1.1,4.3,2.7,6.9,2.5c0.5-0.2,0.9-0.6,1.4-0.3c1.7,0.8,4.7,1,4.3,3.1c-0.4,2.6-3.2,1.6-5.1,1.4c-2.5-0.3-5-0.2-7.5-0.2
			c-167.1,0-334.3,0-501.4,0c-2.6,0-5.4,0.7-7.8-1C0,617.4,0,616.7,0,616.1z"/>
		<path class="st4" d="M1584,615.1c2.7,0.2,4.7-1.4,6.9-2.5c167.3-83.6,334.7-167.2,502-250.9c1.7-0.9,3.4-1.6,5.1-2.5
			c0.3,0.6,0.5,1.2,0.8,1.7c-168.7,84.3-337.4,168.6-506.6,253.2c2.1,1.5,4.1,0.9,5.9,0.9c128.8,0,257.7,0,386.5,0
			c36.2,0,72.3,0,108.5,0c2.3,0,4.7-0.3,6.8,1c0,0.7,0,1.3,0,2c-2.3,1.6-4.8,1-7.3,1c-167,0-333.9,0-500.9,0c-3.3,0-6.7-0.2-10,0.4
			c-1.4,0.3-3.3,0.3-3.7-1.6c-0.4-1.7,1.6-1.8,2.6-2.4C1581.7,614.9,1582.8,614.2,1584,615.1z"/>
		<path class="st5" d="M1835,225.2c0.1,2.7-2.4,2.5-3.8,3.3c-85.3,42.7-170.7,85.3-256,128C1460,414,1344.9,471.6,1229.8,529.2
			c-3.3,1.7-5,2.3-5-2.6c0.1-99.4,0.1-198.9,0.1-298.3c0-1,0.1-2,0.2-3C1428.3,225.2,1631.7,225.2,1835,225.2z"/>
		<path class="st5" d="M1225,1274.8c-0.1-2-0.2-4-0.2-6c0-98.1,0-196.2,0-294.3c0-5.7,0.3-5.9,5.5-3.3
			c149.1,74.5,298.1,149,447.2,223.5c51.1,25.5,102.2,51,153.2,76.6c1.6,0.8,4.2,0.7,4.3,3.5
			C1631.7,1274.8,1428.3,1274.8,1225,1274.8z"/>
		<path class="st5" d="M875,225.2c0.1,1.7,0.2,3.3,0.2,5c0,98.6,0,197.2,0,295.8c0,5.1-0.4,5.3-4.9,3
			C729,458.6,587.8,388,446.6,317.4c-59.3-29.6-118.6-59.2-177.8-88.9c-1.4-0.7-3.9-0.6-3.8-3.3C468.3,225.2,671.7,225.2,875,225.2z
			"/>
		<path class="st6" d="M0,618.1c2,0.1,4,0.4,6,0.4c168.6,0,337.2,0,505.8,0c3.1,0,6.2,0.8,10-0.2c-1.9-1.9-3.7-2.8-5.8-3.1
			c-16.2-8.2-32.3-16.5-48.5-24.6C327.2,520.3,186.9,450.2,46.6,380.1c-15.5-7.7-31.1-15.3-46.6-22.9c0-0.3,0-0.7,0-1
			c2.2-0.5,3.8,0.9,5.6,1.8C148.3,429.3,291,500.6,433.8,572c29.2,14.6,58.4,29.2,87.6,43.7c1.2,0.6,2.8,0.7,2.5,2.5
			c-0.3,2.2-2,1.8-3.5,1.8c-1.7,0-3.3,0-5,0c-171,0-342,0-513,0c-0.8,0-1.7,0-2.5,0C0,619.4,0,618.7,0,618.1z"/>
		<path class="st6" d="M1584,615.1c-2.1,0.2-3.7,1.2-5.3,2.5c0.3,1.1,1.2,1.1,2,1.1c171.8-0.1,343.5-0.2,515.3-0.3
			c1.3,0,2.6-0.2,4-0.4c0,0.7,0,1.3,0,2c-169.5,0-339,0-508.5,0c-4,0-8,0-12,0c-1.4,0-3.2,0.4-3.5-1.8c-0.2-1.8,1.4-1.9,2.5-2.5
			c171.8-85.8,343.6-171.7,515.4-257.5c1.9-0.9,3.6-2.5,6-2c0,0.3,0,0.7,0,1c-17,8.4-34.1,16.7-51.1,25.2
			c-131.8,65.8-263.6,131.7-395.4,197.6c-22.2,11.1-44.4,22.2-66.6,33.3C1585.9,613.7,1585,614.4,1584,615.1z"/>
		<path class="st5" d="M265,1274.8c-0.1-2.4,2.1-2.3,3.4-3c77.3-38.7,154.7-77.3,232-116c5.2-2.6,10.4-5.3,15.6-7.9
			c0.9-0.7,1.9-0.7,2.9-0.3c0.5,2.8-2,3.1-3.5,3.9c-6.5,3.4-13.1,6.6-19.6,9.9c-72.8,36.4-145.6,72.8-218.4,109.1
			c-1.9,1-3.7,2.5-6.9,1.9c2.3,0.7,3.9-0.2,5.5,0c4.5-0.3,9-0.2,13.5-0.2c190.4,0,380.9,0,571.3,0c3,0,6,0.2,8.9-0.5
			c2.7-1.2,1.8-3.7,1.8-5.7c0.1-12.1,0-24.3,0-36.4c0-82.9,0-165.7-0.1-248.6c0-2.4,1.5-6.1-3.2-6.3c-2.1-1.8-1.9-2.1,1.8-3.6l0,0
			c4.8-2.5,5.4-2.2,5.4,2.9c0,98.7,0,197.3,0,296c0,1.8,0.6,3.8-1.5,4.9C671,1274.8,468,1274.8,265,1274.8z"/>
		<path class="st3" d="M0,228.2c1.6,1.5,1,3.4,1,5.2c0.1,9.7,0.3,19.3-0.1,29c-0.2,4.2,1.5,6.1,5,7.9
			c40.5,20.1,80.9,40.4,121.4,60.6c27.8,13.9,55.6,27.8,83.4,41.7c27,13.5,54,27,81,40.5c27.7,13.8,55.3,27.6,83,41.5
			c26.9,13.4,53.8,26.9,80.7,40.4c27.8,13.9,55.6,27.8,83.4,41.7c26.9,13.5,53.8,26.9,80.7,40.4c25.1,12.6,50.3,25.1,75.4,37.7
			c3.5,1.8,7,2.5,11,2.5c51.5-0.1,103-0.1,154.4,0c1.9,0,4-0.8,5.6,1.1c-1.6,1.3-3.5,0.9-5.3,0.9c-52,0-104.1,0-156.1,0.1
			c-6.4,0-11.3-3.3-16.6-6.1c-57.4-28.7-114.9-57.5-172.3-86.2C412.4,475.2,309.1,423.6,205.9,372C138.4,338.3,71,304.6,3.6,270.9
			c-1.2-0.6-2.4-1.1-3.6-1.7C0,255.6,0,241.9,0,228.2z"/>
		<path class="st3" d="M1266,900.9c6.6,1.6,12.4,5.4,18.4,8.3c19.1,9.4,38.1,19,57.2,28.5c27.7,13.8,55.3,27.6,83,41.5
			c27.1,13.5,54.1,27.1,81.2,40.6c27.5,13.7,55,27.5,82.5,41.2c26.6,13.3,53.3,26.6,79.9,39.9c31.3,15.7,62.5,31.8,94,47.3
			c31.5,15.4,62.6,31.5,94,46.9c26.1,12.8,51.9,26.1,78,38.8c23.3,11.4,46.3,23.3,69.4,34.9c6.4,3.2,12.9,5.2,20.4,5.1
			c25.3-0.4,50.7-0.2,76-0.2c-0.9,2.1-2.7,0.9-4,0.9c-28.7,0.1-57.3,0.1-86,0.1c-2.1-3.3-5.9-4-9.1-5.6
			c-174.1-87.1-348.3-174.1-522.4-261.1c-70.8-35.4-141.7-70.8-212.5-106.2c-0.3-0.2-0.4-0.4-0.3-0.7
			C1265.8,901,1265.9,900.9,1266,900.9z"/>
		<path class="st3" d="M0,1273.8c24,0,48-0.4,72,0.2c10,0.3,18.8-2.1,27.5-6.5c27.2-13.8,54.5-27.6,81.8-41.2
			c26-13,52.1-25.7,78.1-38.7c23.9-12,47.8-24.2,71.7-36.2c27.3-13.7,54.7-27.4,82.1-41.1c26.8-13.4,53.6-26.8,80.4-40.2
			c26-13,52.2-25.7,78.2-38.7c25-12.5,49.8-25.2,74.8-37.7c27.5-13.8,55-27.6,82.5-41.3c29.3-14.6,58.6-29,87.9-43.6
			c5.6-2.8,10.9-6.2,17-7.8c0.3,0.2,0.4,0.4,0.3,0.7c-0.1,0.2-0.2,0.3-0.3,0.3c-77.4,38.7-154.8,77.3-232.2,116
			c-90.6,45.3-181.3,90.6-271.9,135.9c-78.4,39.2-156.9,78.4-235.3,117.6c-1.6,0.8-4.1,0.9-4.6,3.4c-28.7,0-57.4,0-86-0.1
			C2.7,1274.7,0.9,1275.8,0,1273.8z"/>
		<path class="st7" d="M216.9,1034.8c101.5-50.7,203-101.4,305.5-152.6c-4.1-1.3-7.1-0.5-10-0.5c-168.5-0.1-337-0.1-505.5,0
			c-2.3,0-4.6,0.2-7,0.3c0-0.7,0-1.3,0-2c1.3,0,2.7,0.1,4,0.1c171.6,0,343.3,0,514.9,0c0.5,0,1,0,1.5,0c1.4,0.1,3.2-0.4,3.5,1.8
			c0.2,1.8-1.4,1.9-2.5,2.5c-18.2,9.1-36.4,18.1-54.5,27.2c-81.8,40.9-163.6,81.7-245.3,122.6c-1.5,0.7-2.8,1.8-4.6,1.7
			c-0.3-0.2-0.4-0.4-0.3-0.7C216.7,1034.9,216.8,1034.8,216.9,1034.8z"/>
		<path class="st3" d="M2100,1271.8c-1.6-1.5-1-3.4-1-5.2c-0.1-9.7-0.1-19.3,0-29c0.1-3.5-0.9-5.5-4.4-7.3
			c-33.8-17.3-67.8-33.9-101.8-50.7c-41.5-20.6-82.7-41.6-124.1-62.4c-27.9-14-55.8-27.9-83.7-41.8c-27.1-13.6-54.3-27.1-81.4-40.7
			c-26.3-13.1-52.5-26.3-78.8-39.4c-27.1-13.6-54.3-27.1-81.4-40.7c-26.1-13-52.2-26.1-78.3-39.1c-11.2-5.6-22.5-11.1-33.7-16.6
			c-1.6-0.8-3.3-1.6-4.3-3.2c4.7-0.6,7.9,2.9,11.6,4.6c7.9,3.7,15.6,7.7,23.3,11.6c25.6,12.8,51.1,25.7,76.7,38.5
			c85.4,42.7,170.9,85.3,256.3,128c96.6,48.3,193.2,96.6,289.8,144.8c5.1,2.5,10.2,5,15.2,7.4C2100,1244.4,2100,1258.1,2100,1271.8z
			"/>
		<path class="st3" d="M672.9,895.7c-5.6,5.1-12.8,7.4-19.3,10.7c-29.3,14.8-58.7,29.2-88.1,43.9c-44,21.9-88,43.9-131.9,65.8
			c-26,13-51.9,25.9-77.9,38.9c-27.1,13.6-54.3,27.2-81.4,40.7c-26.2,13.1-52.5,26.2-78.8,39.3c-26.8,13.4-53.7,26.8-80.5,40.2
			c-27.9,13.9-55.8,27.8-83.6,41.8c-8.6,4.3-16.9,9.1-25.6,13c-4,1.8-5,4-4.9,8c0.2,9.7,0.1,19.3,0,29c0,1.6,0.6,3.4-1,4.7
			c0-13.7,0-27.3,0-41c27.7-13.8,55.4-27.6,83.1-41.4c74.3-37.1,148.5-74.2,222.8-111.3c75.9-37.9,151.8-75.9,227.7-113.8
			c33.8-16.9,67.6-33.7,101.4-50.6c1-0.5,2-1.2,3-1.7c10.3-5.1,20.5-10.2,30.8-15.4C670.2,895.9,671.3,895,672.9,895.7z"/>
		<path class="st3" d="M865,615.1c-1.5-0.6-3.1-1.1-4.6-1.8c-25.9-12.8-51.8-25.5-77.6-38.4c-42.8-21.4-85.4-43-128.2-64.4
			c-26.5-13.3-53.1-26.6-79.7-39.8c-27.3-13.6-54.6-27.3-81.9-40.9c-26-13-51.9-25.9-77.9-38.9c-27.3-13.6-54.6-27.3-81.9-40.9
			c-27.4-13.7-54.9-27.4-82.3-41.1c-25.7-12.8-51.3-25.6-77-38.5c-26.5-13.3-53.1-26.5-79.6-39.8c-5.7-2.9-11.4-4.5-18-4.4
			c-25.5,0.4-51,0.1-76.5,0.1c0.9-2.1,2.7-0.9,4-0.9c28.3-0.1,56.7-0.1,85-0.1c33.5,17.3,67.4,33.7,101,50.7
			c31.1,15.7,62.3,31.2,93.5,46.8c49.9,24.8,99.7,49.8,149.6,74.7c53.3,26.6,106.7,53.3,160,79.9c53.3,26.7,106.6,53.3,159.9,79.9
			c37,18.5,73.9,37,110.9,55.5C864.7,613.2,865.5,613.8,865,615.1z"/>
		<path class="st8" d="M863.9,613.1c-19.1-9.5-38.2-18.8-57.3-28.4c-97.5-48.7-195-97.5-292.6-146.2
			c-114.2-57.1-228.4-114.1-342.6-171.2c-26.4-13.2-52.7-26.4-79-39.6c-1.3-0.7-3-0.8-3.4-2.6c1,0,2,0,3,0
			c9.2,6.3,19.5,10.5,29.3,15.5c26.5,13.5,53.2,26.7,79.8,40c50,24.9,100.1,49.7,150,74.7c32.1,16,64.1,32.4,96.3,48.4
			c48.5,24.2,97.1,48.3,145.6,72.5c33.5,16.7,66.8,33.7,100.3,50.4c47.2,23.6,94.4,47,141.6,70.5c10.4,5.2,20.6,10.6,30.9,16
			C865.2,613.7,864.5,613.6,863.9,613.1z"/>
		<path class="st3" d="M2100,226.2c-25.8,0-51.6,0.1-77.5-0.1c-5.9-0.1-11,1.3-16.1,3.9c-24.1,12.2-48.2,24.4-72.3,36.5
			c-41.9,20.9-83.8,41.7-125.7,62.5c-27.6,13.7-55.2,27.5-82.8,41.3c-25.8,12.9-51.6,25.8-77.4,38.7c-27.6,13.8-55.2,27.6-82.8,41.3
			c-27.3,13.6-54.6,27.3-81.9,40.9c-25.7,12.8-51.3,25.7-77,38.5c-27.7,13.9-55.5,27.7-83.2,41.6c-23.7,11.9-47.4,23.7-71.1,35.5
			c-1.7,0.9-3.4,2.3-5.5,2c0-2.2,2.1-2,3.3-2.8l0,0c1.1-1.2,2.7-1.3,4-2l0,0c1.1-1.1,2.7-1.3,4-2l0,0c1.1-1.2,2.7-1.3,4-2l0,0
			c1.1-1.1,2.7-1.3,4-2l0,0c1.4-0.9,2.7-1.9,4.3-2.5c39-19.5,78.1-39,117.1-58.5c58.1-29,116.1-58.1,174.2-87
			c32.6-16.2,65.1-32.5,97.6-48.8c49.7-24.9,99.4-49.7,149.2-74.6c54.7-27.4,109.5-54.7,164.3-82.1c12.8-6.4,25.6-12.8,38.3-19.3
			c28.3,0,56.7,0,85,0.1C2097.3,225.3,2099.1,224.2,2100,226.2z"/>
		<path class="st8" d="M2011,225.2c-3.9,3.9-9,5.4-13.7,7.8c-176.2,88.2-352.5,176.2-528.7,264.3c-65.4,32.7-130.7,65.3-196.1,97.9
			c-0.7,0.4-1.5,0.6-2.3,0.9c-0.7,0.4-1.5,0.5-2.2-0.1c22.9-11.5,45.8-22.9,68.7-34.4c47.9-24,95.7-48.1,143.6-72.1
			c33-16.5,66.2-32.8,99.2-49.3c48.9-24.5,97.8-49.1,146.7-73.6c32.1-16.1,64.4-31.9,96.5-47.9c49.8-24.9,99.5-49.9,149.3-74.9
			c10.5-5.3,21.1-10.4,31.5-15.7c1.6-0.8,3-2,4.5-3C2009,225.2,2010,225.2,2011,225.2z"/>
		<path class="st7" d="M2100,881.9c-1.8-0.1-3.6-0.3-5.5-0.3c-168.6,0-337.3,0-505.9,0c-3.3,0-6.5,0-9.9,0c0.5,2.4,3.4,1.9,3.7,4
			c-2.4-0.7-6.4-0.8-6.1-3.7c0.4-3.8,4.4-1.8,6.6-1.8c171.5-0.1,343-0.1,514.6-0.1c0.8,0,1.7-0.1,2.5-0.1
			C2100,880.6,2100,881.3,2100,881.9z"/>
		<path class="st3" d="M1720,458.2c0.6-1.8,2.4-2.2,3.8-2.9c25.6-12.7,51.3-25.4,76.9-38.2c23.5-11.7,46.8-23.8,70.4-35.4
			c24.8-12.2,49.2-24.9,74.1-36.8c24-11.5,47.5-23.9,71.3-35.9c25.2-12.7,50.4-25.4,75.8-37.8c5-2.4,7.3-5,6.9-10.8
			c-0.6-9-0.2-18-0.1-27c0-1.7-0.7-3.7,1-5.2c0,13.7,0,27.3,0,41c-39.6,19.8-79.3,39.5-118.9,59.3C1902.1,368,1823,407.5,1744,447
			c-1.3,0.7-2.7,1.4-4,2.1c-5.6,3.3-11.5,5.9-17.3,8.8C1721.9,458.4,1721,459,1720,458.2z"/>
		<path class="st9" d="M874,1274.8c1-1.7,0.7-3.6,0.7-5.4c0-98.3,0-196.7,0.1-295c0-4.4-1.4-4.7-4.8-3.4c0.8-2.1,2.7-2.6,4.5-2
			c2.1,0.6,1.5,2.7,1.5,4.3c0,100.5,0,201,0,301.5C875.3,1274.8,874.7,1274.8,874,1274.8z"/>
		<path class="st3" d="M1,813.9c-0.3,0-0.7,0-1,0c0-42.6,0-85.3,0-127.9c0.3,0,0.7,0,1,0c1.7,1.9,1.6,4.3,1.6,6.6
			c0,38.2,0,76.4,0,114.7C2.6,809.6,2.8,812,1,813.9z"/>
		<path class="st3" d="M2100,814c-0.3,0-0.7,0-1,0c-1.7-1.9-1.6-4.3-1.6-6.6c0-38.2,0-76.4,0-114.7c0-2.3-0.1-4.7,1.6-6.6
			c0.3,0,0.7,0,1,0C2100,728.7,2100,771.3,2100,814z"/>
		<path class="st10" d="M1462,911.9c-8.3-2.5-15.4-7.5-23.2-10.9c-3.9-1.7-7.4-4.3-11.7-5.3c-8.5-5.2-17.7-9.1-26.6-13.5
			c-1.1-0.6-2.6-0.4-3.9-0.4c-55-0.1-109.9-0.1-164.9-0.1c-0.6,0-1.2,0.2-2.3,1.3c12.2,6,24.4,12,36.7,18c0,0.3,0,0.7,0,1
			c-6.9-1.5-12.5-5.8-18.8-8.6c-5.6-2.4-11.1-5.3-16.5-8.2c-1.6-0.9-4.7-0.9-4.2-3.5c0.5-2.6,3.3-1.5,5.1-1.6c1.8-0.1,3.7,0,5.5,0
			c49,0,98,0.2,147-0.1c10.4-0.1,19.8,1.5,29.1,6.6c14.8,8.1,30.2,15.2,45.3,22.7C1459.8,910,1461.2,910.5,1462,911.9z"/>
		<path class="st11" d="M1953,1068.9c0,0.4,0,0.7-0.1,1.1c-7.7-2.2-14.4-6.6-21.5-10.1c-15.2-7.4-30.3-15.1-45.5-22.6
			c-1.2-0.6-2.5-0.9-3.1-2.3c0.7,0,1.4,0,2.1,0c2-0.3,3.5,0.8,5.1,1.6c19.9,9.8,39.6,19.8,59.4,29.5
			C1950.9,1066.7,1952.1,1067.6,1953,1068.9z"/>
		<path class="st9" d="M870.1,971c-1.1,0.9-2.2,1.8-3.3,2.8c-0.9,2.1-2.9,2.6-4.7,3.5c-112.5,56.2-225,112.5-337.5,168.7
			c-1.8,0.9-3.4,2.1-5.6,1.7c-1,0.1-2,0.2-2.9,0.2c9.1-6.2,19.2-10.3,29-15.2c57.9-29,115.8-58,173.8-86.9
			c41.5-20.7,83-41.4,124.5-62.1c7.7-3.9,15.4-7.7,23.1-11.6C867.5,971.4,868.6,970.6,870.1,971z"/>
		<path class="st10" d="M672.9,895.7c-11,4.3-21,10.3-31.7,15.3c-1.1,0.5-2,1.2-3.3,0.9c7.2-5.5,15.7-8.4,23.6-12.6
			c11.3-6,22.9-11.3,34.3-17.1c3.1-1.6,6.2-2.2,9.6-2.2c54.5,0,109,0,163.5,0c1.7,0,4.1-0.8,4.7,1.6c0.5,2.2-2,2.4-3.3,3
			c-11.1,5.6-22.3,11.1-33.4,16.7c-0.9,0.5-1.8,0.8-2.9,0.5c0-0.3,0-0.7,0-1c12.2-6,24.4-11.9,36.5-17.9c-0.6-1.9-1.7-1.4-2.6-1.4
			c-54,0-107.9,0.1-161.9,0c-4,0-7.5,0.7-11,2.6C687.7,888.2,680.3,891.9,672.9,895.7z"/>
		<path class="st11" d="M216.9,1034.8c0,0.3,0,0.7,0,1c-22.5,11.3-45,22.5-67.5,33.8c-0.7,0.3-1.6,0.3-2.4,0.4c0-0.4,0-0.7-0.1-1.1
			c5.1-4.6,11.7-6.6,17.7-9.7c15.3-7.8,30.6-15.7,46.1-23.1c1.3-0.6,2.6-1.5,4.2-1.3C215.6,1034.8,216.3,1034.8,216.9,1034.8z"/>
		<path class="st12" d="M863.9,613.1c0.7,0,1.3,0,2,0.1c2.1,1,4.2,1.9,6.3,2.9c0.9,0.4,1.8,1.1,1.5,2.3c-0.3,1.1-1.3,1.4-2.3,1.5
			c-0.8,0.1-1.7,0-2.5,0c-54.8,0-109.5,0-164.3,0c-6.5,0-11.7-2.9-16.5-6.9c0.2,0,0.4-0.1,0.5-0.1c9.4,6.5,20.2,5.4,30.8,5.4
			c46.6-0.1,93.2,0,139.8,0c2.3,0,4.6-0.1,7-0.2c0.3,0.2,0.6,0.2,0.8,0c1.9,0.2,2.6-0.2,1.2-2c-1-0.3-2.2-0.2-3-1.1
			C864.6,614.4,864.3,613.8,863.9,613.1z"/>
		<path class="st12" d="M1250,606.1c-1.1,0.9-2.2,1.9-3.3,2.8c-5.8,2.7-11.7,5.4-17.4,8.1c0.4,1.5,1.2,1.6,2,1.6
			c54.3-0.1,108.7-0.2,163-0.2c4,0,7.5-0.8,11-2.6c76.3-38.2,152.6-76.3,228.8-114.4c1.3-0.7,2.6-1.5,3.9-2.3
			c6.3-3.5,12.6-6.8,19.3-9.5c0.5,0.1,0.8,0.4,1,0.9c-12.2,7.1-25.1,13-37.7,19.3c-57.2,28.7-114.4,57.2-171.6,85.8
			c-14.8,7.4-29.7,14.8-44.5,22.3c-2.9,1.5-5.8,2.2-9.1,2.2c-54.8,0-109.6,0-164.3,0c-1.7,0-4.1,0.8-4.6-1.7c-0.4-2.2,2-2.4,3.4-3
			C1236.7,612.6,1242.7,607.7,1250,606.1z"/>
		<path class="st12" d="M1720,458.2c7-2.3,12.9-7,20-9c-0.3,1.1-1.1,1.6-2,2c-19.1,9.5-38.2,19.1-57.3,28.6
			c-0.7,0.4-1.6,0.5-2.4,0.7c-0.4-0.3-0.6-0.7-0.4-1.2c8.5-4.7,17.3-9,26.2-13.1l0,0c3.8-2.4,7.9-4.2,12-6l0,0
			C1717.1,459,1718.7,458.9,1720,458.2L1720,458.2z"/>
		<path class="st12" d="M1262,600.1c-1,1.3-2.2,2.2-4,2C1258.8,600.3,1260.2,599.8,1262,600.1z"/>
		<path class="st12" d="M1258,602.1c-1,1.3-2.3,2.1-4,2C1254.8,602.3,1256.2,601.8,1258,602.1z"/>
		<path class="st12" d="M1254,604.1c-1,1.3-2.3,2.1-4,2C1250.8,604.3,1252.2,603.8,1254,604.1z"/>
		<path class="st12" d="M1662.3,488.5c-1.1,1.2-2.5,1.8-4,2c-0.2-0.2-0.3-0.4-0.5-0.6c0.6-1.8,2.2-1.9,3.7-2.3
			C1661.9,487.7,1662.2,488,1662.3,488.5z"/>
		<path class="st12" d="M1666.3,486.5c-1.1,1.2-2.5,1.7-4,2c-0.2-0.2-0.3-0.4-0.5-0.6c0.6-1.8,2.2-1.9,3.7-2.3
			C1665.9,485.7,1666.2,486,1666.3,486.5z"/>
		<path class="st12" d="M1268,596.1c0.7,0,1.4,0.1,2.2,0.1c-1.2,1.1-2.4,2.1-4.1,1.9C1266.2,597,1267.2,596.6,1268,596.1z"/>
		<path class="st12" d="M1670.3,484.5c-1.1,1.2-2.5,1.7-4,2c-0.2-0.2-0.3-0.4-0.5-0.6c0.6-1.8,2.2-1.9,3.7-2.3
			C1669.9,483.7,1670.2,484,1670.3,484.5z"/>
		<path class="st12" d="M1674.3,482.5c-1.1,1.2-2.5,1.7-4,2c-0.2-0.2-0.3-0.4-0.5-0.6c0.6-1.8,2.2-1.9,3.7-2.3
			C1673.9,481.7,1674.2,482,1674.3,482.5z"/>
		<path class="st12" d="M1678.3,480.4c-1,1.2-2.5,1.7-4,2c-0.2-0.2-0.3-0.4-0.5-0.6c0.8-1.7,2.2-2.3,4-2
			C1677.9,480,1678.1,480.2,1678.3,480.4z"/>
		<path class="st12" d="M1266,598.1c-1,1.3-2.2,2.2-4,2C1262.8,598.3,1264.2,597.8,1266,598.1z"/>
		<path class="st13" d="M1636.5,910.1c-18.4-9.2-35.5-17.7-53.6-26.7c172.5,0,344,0,515.4,0c-1.7,2.1-3.9,1.5-5.9,1.5
			c-137.1,0-274.2,0-411.4,0c-26.7,0-53.3,0-80,0c-1.3,0-2.7-0.1-4,0c-1.5,0.1-3.6-2.1-4.3,0.4c-0.5,1.7,2.1,2.4,3.5,3
			c12.3,6.3,24.7,12.4,37.1,18.5C1634.5,907.4,1635.5,907.8,1636.5,910.1z"/>
		<path class="st14" d="M1953,1068.9c-22.8-11.1-45.7-21.9-68-33.9c-1.3-1.7-3.3-2.2-5-3.1c-32.1-16.1-64.2-32.1-96.3-48.2
			c-1.6-0.8-3.5-1.3-4.6-2.8c-0.6-0.7-0.6-1.3,0-2c9.3,5.9,19.7,9.8,29.4,14.9c12,6.3,24.1,12.4,36.2,18.5
			c23.1,11.6,46.2,23,69.3,34.6c12.4,6.2,24.6,12.7,37.1,18.6c25.4,11.9,49.7,25.9,75.1,37.7c20.9,9.7,41.2,20.7,61.8,31
			c3.7,1.8,8,2.3,11,6.2c-2.7,0.4-4.2-1.1-5.9-2c-44.7-22.3-89.4-44.6-134-66.9C1957,1070.4,1955,1069.7,1953,1068.9z"/>
		<path class="st13" d="M1779,978.9c0,0.7,0,1.3,0,2c-1.8-0.7-3.7-1.4-5.5-2.3c-44.1-22-88.2-44-132.3-66.1
			c-1.9-0.9-4.2-1.4-5.2-3.6c6.1,0.2,10.8,4,15.7,6.6c20.5,10.7,40.9,21.4,61.8,31.2c21.1,10,41.6,21.3,62.6,31.5
			C1777,978.7,1778,978.7,1779,978.9z"/>
		<path class="st13" d="M464,908.9c6.9-5.2,15.1-7.9,22.5-12c6.2-3.4,12.6-6.5,18.9-9.7c0.9-0.5,2.6-0.8,1.7-2.4
			c-0.6-1.1-1.7-0.4-2.7-0.3c-1.8,0.3-3.6,0.3-5.5,0.3c-163.8,0-327.6,0-491.3,0c-2,0-3.9,0-5.9,0c0-0.4,0-0.9,0-1.3
			c171.4,0,342.8,0,514.3,0c-1.3,0.7-2.6,1.5-4,2.2c-14.1,7.1-28.3,14.1-42.5,21.2C467.8,908,466.1,909.1,464,908.9L464,908.9z"/>
		<path class="st14" d="M215,1034.8c-13.2,6.7-26.3,13.4-39.5,20c-9.5,4.8-19,9.4-28.6,14c-2,0.8-4,1.5-5.9,2.5
			c-44.7,22.3-89.4,44.6-134,67c-1.7,0.9-3.4,1.6-6,2.9c1.5-3.9,4.4-4.4,6.6-5.3c18.3-8,35.4-18.4,53.5-26.8
			c27.9-12.9,54.8-28,82.6-41.2c26.2-12.5,51.7-26.4,77.8-38.9c27.6-13.2,54.7-27.4,82-41.1c5.7-2.8,11.6-5.3,17.4-8
			c0.3,0.2,0.3,0.4,0.3,0.7c-0.1,0.2-0.2,0.3-0.3,0.3c-1.3,1.6-3.3,2.1-5.1,3c-32.1,16.1-64.2,32.1-96.2,48.1
			C218.1,1032.8,216.6,1033.8,215,1034.8z"/>
		<path class="st13" d="M321,980.9c0-0.3,0-0.7,0-1c31.5-16.7,63.6-32.1,95.5-48c14.3-7.1,28.5-14.5,42.7-21.9
			c1.6-0.8,3.1-1.1,4.7-1.1h0c-0.7,1.8-2.4,2.2-3.9,2.9c-45.1,22.6-90.3,45.1-135.4,67.7C323.5,980.1,322.2,980.4,321,980.9z"/>
		<path class="st3" d="M1677.8,479.8c-1.3,0.7-2.7,1.3-4,2c-1.3,0.7-2.7,1.3-4,2c-1.3,0.7-2.7,1.3-4,2c-1.3,0.7-2.7,1.3-4,2
			c-1.3,0.7-2.7,1.3-4,2c-6.6,3.1-13.2,6.2-19.8,9.3c0.6-1.6,2.1-2.1,3.4-2.7c19.3-9.7,38.6-19.3,57.9-29c1.5-0.7,2.9-1.6,4.7-1.3
			C1695.3,470.7,1686.5,475.3,1677.8,479.8z"/>
		<path class="st3" d="M1716,460.2c-3.8,2.5-7.8,4.5-12,6C1707.3,462.7,1711.4,460.9,1716,460.2z"/>
		<path class="st3" d="M1720,458.2c-1.1,1.1-2.4,1.8-4,2C1716.7,458.3,1718.3,458,1720,458.2z"/>
		<path class="st3" d="M868,616.2c1.2-0.1,2.9,0.5,2.6,1.4c-0.6,1.8-2.3,1.2-3.7,0.6C867.6,617.8,868,617.1,868,616.2z"/>
		<path class="st2" d="M2099,686.1c0,42.6,0,85.3,0,127.9c-317.8,0-635.6,0-953.4,0c-1.3,0-2.7,0.1-4,0c-4.4-0.5-5.7,1.4-5.7,5.7
			c0.1,34.8,0.1,69.6,0.1,104.4c0,114.3,0,228.5,0,342.8c0,6.8,0,6.8-6.6,6.9c-53,0-106,0-159,0c-6.4,0-6.4,0-6.4-6.6
			c0-148.4,0-296.8,0-445.2c0-8,0-8-8.1-8c-318.3,0-636.6,0-954.9,0c0-42.6,0-85.3,0-127.9c317.8,0,635.6,0,953.4,0
			c1.3,0,2.7-0.1,4,0c4.5,0.6,6.1-1.6,5.6-5.8c-0.1-1,0-2,0-3c0-148.1,0-296.2,0-444.3c0-6.7,0-6.7,6.7-6.7c53,0,106,0.1,159-0.1
			c5.1,0,6.3,1.3,6.3,6.4c-0.1,148.3-0.1,296.5-0.1,444.8c0,8.8,0,8.8,9.1,8.8C1463,686,1781,686,2099,686.1z"/>
		<path class="st1" d="M1229,226.2c199,0,398,0,597,0c0.4,2.7-2,2.7-3.5,3.4c-27.9,14.5-56.2,28.4-84.4,42.4
			c-14.6,7.2-28.9,14.9-43.6,22c-30.7,14.8-60.9,30.6-91.4,45.8c-1,0.5-2.3,0.5-3.2,1.3l0,0c-13.7,6.1-27,13.2-40.3,20.1
			c-11.2,5.8-22.5,11.1-33.7,16.9l0,0c-1.2,1-2.9,0.9-4,2l0,0c-1.2,1-2.9,0.9-4,2l0,0c-13.9,6.2-27.3,13.3-40.7,20.3
			c-11,5.7-22.3,10.9-33.3,16.7l0,0c-1.2,1-2.9,0.9-4,2l0,0c-13.8,6.2-27.2,13.3-40.6,20.2c-10.1,5.2-20.3,10.3-30.5,15.5
			c-33.8,16.6-67.2,33.9-101,50.5c-11.3,5.6-22.6,11.3-33.9,16.9c-4.9,2.4-6,1.7-6-3.9c0-11.5,0-23,0-34.5c0-84.1,0-168.2,0-252.3
			C1228,231.1,1227.3,228.5,1229,226.2z"/>
		<path class="st15" d="M1229,226.2c0,97.7,0,195.4,0,293.1c0,6.2,0,6.2,5.4,3.6c27-13.4,54.3-26.3,81-40.3
			c17.1-8.9,34.8-16.8,51.7-25.9c0.8-0.4,1.9-0.4,2.9-0.6c0.3-0.4,0.7-0.4,1,0c-9.3,6.4-19.8,10.5-29.8,15.6
			c-21.3,11-43,21.4-64.4,32.1c-16,8-32.3,15.5-48,24.2c-0.4,0.2-0.9,0.1-1.7,0.2c-0.1-1.4-0.2-2.7-0.2-4c0-97.6,0-195.2,0.1-292.7
			C1227.1,229.7,1225.7,227,1229,226.2z"/>
		<path class="st16" d="M1600,341.2c5-4.7,11.7-6.5,17.6-9.6c19.7-10.3,39.6-20.5,59.6-30.1c26.3-12.6,51.9-26.6,78.2-39.1
			c23.2-11.1,45.8-23.1,68.8-34.4c0.7-0.3,1.1-1.1,1.7-1.7c1.3,0,2.6,0,3.9,0c0.1,0.3,0.2,0.5,0.3,0.8c-1.5,0.8-3,1.6-4.5,2.3
			c-40.4,20.2-80.7,40.4-121.1,60.6c-33.3,16.7-66.6,33.4-99.9,50.2C1603.1,340.9,1601.7,341.2,1600,341.2z"/>
		<path class="st16" d="M1444,419.2c1.6-4.1,5.9-3.6,8.9-5.2c20.1-10.4,40.3-20.4,60.4-30.7c1.6-0.8,3.1-1.1,4.7-1.1
			c-6.5,5.1-14.3,7.8-21.6,11.6c-16.4,8.6-33,16.6-49.6,24.8C1446,419,1445,419,1444,419.2z"/>
		<path class="st16" d="M1526,378.2c4.5-5.2,11.4-6.2,17.1-9.2c17.2-9.2,34.8-17.8,52.2-26.7c1.6-0.8,3.1-1.1,4.7-1.1
			c-6.5,5.1-14.3,7.8-21.6,11.6c-16.2,8.5-32.8,16.4-49.1,24.6C1528.2,377.9,1527.2,378.2,1526,378.2z"/>
		<path class="st16" d="M1371,456.1c-0.3,0-0.7,0-1,0c5-4.4,11.4-6.3,17.2-9.4c15.9-8.4,32.1-16.3,48.1-24.5
			c1.6-0.8,3.1-1.1,4.7-1.1c-6.1,4.7-13.5,7.3-20.3,10.8c-15,7.7-30,15.2-45,22.8C1373.5,455.3,1372.3,455.7,1371,456.1z"/>
		<path class="st16" d="M1440,421.2c0.8-1.8,2.3-2.1,4-2C1443.2,420.9,1441.7,421.3,1440,421.2z"/>
		<path class="st16" d="M1518,382.2c0.7-1.8,2.3-2.1,4-2C1521.2,382,1519.7,382.3,1518,382.2z"/>
		<path class="st16" d="M1522,380.2c0.7-1.8,2.3-2.1,4-2C1525.2,380,1523.7,380.3,1522,380.2z"/>
		<path class="st1" d="M1826,1273.7c-199,0-398,0-597,0c-1.4-1.5-1-3.5-1-5.3c0-96.1,0-192.2,0-288.3c0-6.5,0.6-6.8,6.4-3.9
			c52.7,26.2,105.3,52.5,157.9,78.9c54.4,27.2,108.8,54.5,163.2,81.6c54.4,27.2,108.8,54.5,163.2,81.5c24.3,12,48.4,24.3,72.7,36.3
			c10.6,5.2,21.1,10.5,31.6,15.9C1824.3,1271.2,1826.4,1271.4,1826,1273.7z"/>
		<path class="st17" d="M1826,1273.7c-5-4.2-11.1-6.4-16.8-9.2c-26.4-13.4-52.9-26.6-79.4-39.8c-26-13-52-25.8-77.9-38.8
			c-29-14.5-58-29.1-87-43.6c-25.7-12.8-51.4-25.5-77-38.3c-28.9-14.4-57.8-29-86.7-43.5c-25.8-12.9-51.6-25.6-77.4-38.5
			c-28.6-14.3-57.2-28.6-85.7-43c-9.2-4.6-9.1-4.8-9.1,5.5c0,96.4,0,192.9,0,289.3c-3.1-0.6-1.9-3.1-2-4.8c-0.1-12.7,0-25.3,0-38
			c0-84.3,0-168.5,0-252.8c0-6.7,0-6.7,6.2-3.6c197.4,98.6,394.7,197.3,592.1,295.9c1.6,0.8,3.2,1.7,5.9,3.1
			C1828.7,1273.6,1827.3,1273.7,1826,1273.7z"/>
		<path class="st1" d="M274,226.3c199,0,398,0,597,0c1.3,1.6,1,3.5,1,5.3c0,96.1,0,192.2,0,288.2c0,6.5-0.9,7-6.9,4
			c-24.9-12.9-50.4-24.5-75.2-37.5c-18.1-9.4-36.5-18.3-54.8-27.2c-19.9-10.2-39.8-20.6-59.9-30.4c-29.7-14.4-58.9-29.8-88.6-44.2
			c-27.5-13.3-54.3-27.8-81.9-40.9c-27.5-13.2-54.3-27.7-81.8-40.9c-26.3-12.6-52-26.5-78.3-39.1c-22.5-10.9-44.7-22.4-67-33.7
			C276,229,273.6,229,274,226.3z"/>
		<path class="st16" d="M274,226.3c6,4.7,13.2,7.3,19.9,10.8c15.2,7.9,30.3,16,45.8,23.1c22.2,10.2,43.4,22.5,65.6,32.8
			c29.3,13.6,57.4,29.5,86.6,43.3c24.8,11.7,48.8,24.7,73.4,36.7c27.5,13.5,54.7,27.8,82.3,41c28.5,13.6,56.3,28.8,84.8,42.4
			c0.7,0.3,1.1,1.1,1.7,1.7c-0.3,0.4-0.7,0.4-1,0c-5.5-1-10-4.2-14.8-6.7c-24-12.6-48.4-24.3-72.7-36.4
			c-19.2-9.6-38.3-19.4-57.5-28.9c-37.1-18.5-74.3-36.8-111.4-55.3c-43.6-21.8-87.1-43.8-130.6-65.6c-23.9-12-47.8-23.9-71.7-35.9
			c-1.5-0.7-2.9-1.5-5.4-2.8C271.3,226.4,272.6,226.3,274,226.3z"/>
		<path class="st15" d="M733,458.1c0.3,0,0.7,0,1,0c6.8,1.6,12.6,5.6,18.7,8.6c26.3,12.9,52.3,26.5,78.8,39.2
			c11.9,5.7,23.5,12,35.5,17.7c2.9,1.4,4.4,1.4,4-2.3c-0.1-0.8,0-1.7,0-2.5c0-97.5,0-195.1,0-292.6c2.8,0.5,2,2.7,2,4.4
			c0.1,11.3,0,22.7,0,34c0,86.1,0,172.2,0,258.3c0,1.8,0,3.5,0,6c-4.3-2.3-7.9-4.2-11.5-6.1c-32.5-16.2-64.9-32.5-97.4-48.7
			c-9.6-4.8-19.3-9.5-29-14.1C734.2,459.6,733.5,459.1,733,458.1z"/>
		<path class="st1" d="M871,1273.8c-199,0-398,0-597,0c-0.3-2.9,2.4-2.9,3.9-3.7c29.3-14.9,58.9-29.4,88.2-44.2
			c29.1-14.7,58.3-29.1,87.4-43.7c21.2-10.7,42.6-21.1,63.7-31.9c58.5-30,117.5-58.8,176.2-88.4c29-14.6,58-29.1,87-43.5
			c28.1-14,56.2-28.2,84.4-42.1c1-0.5,2.1-1,3.2-1.4c2.3-0.8,3.5-0.1,3.8,2.3c0.1,1.3,0.1,2.7,0.1,4c0,95.5,0,190.9,0,286.4
			C872,1269.6,872.6,1271.9,871,1273.8z"/>
		<path class="st17" d="M871,1273.8c0-97.6,0-195.2,0-292.8c0-1,0-2,0-3c0.1-2.8-1.1-3-3.3-1.9c-17.2,8.7-34.3,17.5-51.6,26.1
			c-35.8,17.9-71.6,35.8-107.4,53.7c-26.7,13.3-53.4,26.6-80.1,39.9c-26.5,13.3-53,26.6-79.6,39.9c-18.9,9.4-37.8,18.8-56.7,28.2
			c-35.5,17.8-71,35.6-106.5,53.3c-25.8,12.9-51.6,25.7-77.5,38.6c-10.9,5.4-21.8,10.8-32.7,16.2c-0.7,0.3-1.1,1.1-1.7,1.7
			c-1.3,0-2.6,0-4,0c-0.1-0.3-0.2-0.5-0.3-0.8c1.5-0.8,3-1.6,4.5-2.3c79.9-40,159.9-79.9,239.8-119.9c1.7-0.9,3.8-1.2,4.9-3.2
			c16.8-8.5,33.5-17.1,50.3-25.5c98.2-49.1,196.5-98.2,294.8-147.3c0.9-0.4,1.8-0.7,2.8-1.1c6.3-1.4,6.3-1.4,6.3,5.5
			c0,96.2,0,192.4-0.1,288.6C872.9,1269.9,874.5,1272.8,871,1273.8z"/>
	</g>
</g>
</svg>
